<svg width="312" height="297" viewBox="0 0 312 297" fill="none" xmlns="http://www.w3.org/2000/svg">
<path d="M156 0L192.596 113.321H311.022L215.213 183.358L251.809 296.679L156 226.642L60.191 296.679L96.7868 183.358L0.977783 113.321H119.404L156 0Z" fill="url(#paint0_linear_0_1)"/>
<path d="M130.633 144V130.8H135.273C136.647 130.8 137.68 131.093 138.373 131.68C139.067 132.253 139.413 133.093 139.413 134.2C139.413 135.013 139.2 135.693 138.773 136.24C138.347 136.773 137.707 137.133 136.853 137.32V137.34C137.76 137.473 138.473 137.82 138.993 138.38C139.513 138.927 139.773 139.653 139.773 140.56C139.773 141.667 139.393 142.52 138.633 143.12C137.873 143.707 136.753 144 135.273 144H130.633ZM131.193 143.5H135.353C136.62 143.5 137.573 143.247 138.213 142.74C138.867 142.233 139.193 141.5 139.193 140.54C139.193 139.567 138.867 138.833 138.213 138.34C137.573 137.847 136.62 137.6 135.353 137.6H131.193V143.5ZM131.193 137.08H135.273C137.647 137.08 138.833 136.127 138.833 134.22C138.833 132.273 137.647 131.3 135.273 131.3H131.193V137.08ZM145.697 133.8C146.63 133.8 147.45 134.007 148.157 134.42C148.864 134.833 149.417 135.433 149.817 136.22C150.217 136.993 150.417 137.92 150.417 139C150.417 140.08 150.217 141.013 149.817 141.8C149.417 142.573 148.864 143.167 148.157 143.58C147.45 143.993 146.63 144.2 145.697 144.2C144.79 144.2 143.984 143.993 143.277 143.58C142.57 143.167 142.01 142.573 141.597 141.8C141.197 141.013 140.997 140.08 140.997 139C140.997 137.92 141.197 136.993 141.597 136.22C142.01 135.433 142.57 134.833 143.277 134.42C143.984 134.007 144.79 133.8 145.697 133.8ZM145.717 134.28C144.89 134.28 144.164 134.473 143.537 134.86C142.924 135.233 142.437 135.773 142.077 136.48C141.73 137.173 141.557 138.013 141.557 139C141.557 139.973 141.73 140.813 142.077 141.52C142.437 142.227 142.924 142.773 143.537 143.16C144.164 143.533 144.89 143.72 145.717 143.72C146.53 143.72 147.244 143.533 147.857 143.16C148.484 142.773 148.97 142.227 149.317 141.52C149.664 140.813 149.837 139.973 149.837 139C149.837 138.013 149.664 137.173 149.317 136.48C148.97 135.773 148.484 135.233 147.857 134.86C147.244 134.473 146.53 134.28 145.717 134.28ZM158.521 137.32C158.521 136.387 158.261 135.653 157.741 135.12C157.221 134.573 156.474 134.3 155.501 134.3C154.688 134.3 153.981 134.48 153.381 134.84C152.794 135.187 152.354 135.76 152.061 136.56L151.621 136.26C151.914 135.447 152.394 134.833 153.061 134.42C153.741 134.007 154.561 133.8 155.521 133.8C156.254 133.8 156.888 133.933 157.421 134.2C157.954 134.467 158.361 134.86 158.641 135.38C158.934 135.9 159.081 136.527 159.081 137.26V142.36C159.081 143.24 159.448 143.68 160.181 143.68C160.461 143.68 160.694 143.627 160.881 143.52L160.841 143.98C160.641 144.1 160.381 144.16 160.061 144.16C159.821 144.16 159.581 144.107 159.341 144C159.101 143.893 158.901 143.707 158.741 143.44C158.581 143.173 158.501 142.787 158.501 142.28V141.5L158.701 141.42C158.594 142.047 158.334 142.567 157.921 142.98C157.508 143.393 157.014 143.7 156.441 143.9C155.868 144.1 155.288 144.2 154.701 144.2C154.048 144.2 153.481 144.107 153.001 143.92C152.521 143.72 152.148 143.433 151.881 143.06C151.614 142.687 151.481 142.233 151.481 141.7C151.481 140.953 151.728 140.367 152.221 139.94C152.728 139.5 153.441 139.193 154.361 139.02L158.621 138.18V138.66L154.681 139.44C153.801 139.6 153.141 139.867 152.701 140.24C152.274 140.6 152.061 141.073 152.061 141.66C152.061 142.313 152.294 142.82 152.761 143.18C153.228 143.527 153.901 143.7 154.781 143.7C155.181 143.7 155.594 143.647 156.021 143.54C156.448 143.42 156.848 143.24 157.221 143C157.608 142.747 157.921 142.427 158.161 142.04C158.401 141.64 158.521 141.167 158.521 140.62V137.32ZM161.728 144V134H162.228L162.268 136.42C162.508 135.66 162.908 135.033 163.468 134.54C164.042 134.047 164.728 133.8 165.528 133.8C165.848 133.8 166.122 133.84 166.348 133.92C166.575 133.987 166.755 134.087 166.888 134.22L166.688 134.7C166.555 134.58 166.402 134.487 166.228 134.42C166.055 134.34 165.788 134.3 165.428 134.3C164.842 134.3 164.308 134.487 163.828 134.86C163.362 135.22 162.988 135.7 162.708 136.3C162.428 136.9 162.288 137.553 162.288 138.26V144H161.728ZM171.171 144.2C170.278 144.2 169.485 143.993 168.791 143.58C168.098 143.167 167.558 142.573 167.171 141.8C166.785 141.013 166.591 140.08 166.591 139C166.591 137.907 166.785 136.973 167.171 136.2C167.558 135.427 168.098 134.833 168.791 134.42C169.498 134.007 170.298 133.8 171.191 133.8C172.178 133.8 173.025 134.073 173.731 134.62C174.438 135.167 174.911 135.933 175.151 136.92L175.091 136.98V129.4H175.651V144H175.131L175.111 140.96L175.171 140.98C175.038 141.66 174.778 142.24 174.391 142.72C174.005 143.2 173.538 143.567 172.991 143.82C172.445 144.073 171.838 144.2 171.171 144.2ZM171.231 143.7C171.991 143.7 172.658 143.513 173.231 143.14C173.818 142.753 174.271 142.207 174.591 141.5C174.925 140.78 175.091 139.94 175.091 138.98C175.091 138.007 174.925 137.173 174.591 136.48C174.271 135.787 173.825 135.253 173.251 134.88C172.678 134.493 172.011 134.3 171.251 134.3C170.011 134.3 169.018 134.72 168.271 135.56C167.525 136.387 167.151 137.533 167.151 139C167.151 140.467 167.525 141.62 168.271 142.46C169.018 143.287 170.005 143.7 171.231 143.7ZM147.905 158.8V172H147.165L139.105 160.52L138.425 159.42H138.405L138.445 160.72V172H137.905V158.8H138.625L146.685 170.28L147.385 171.4L147.365 170.08V158.8H147.905ZM159.728 158.8V159.3H154.768V172H154.208V159.3H149.228V158.8H159.728ZM169.821 158.8V159.3H164.861V172H164.301V159.3H159.321V158.8H169.821Z" fill="black"/>
<defs>
<linearGradient id="paint0_linear_0_1" x1="156" y1="0" x2="156" y2="328" gradientUnits="userSpaceOnUse">
<stop offset="0.364583" stop-color="white"/>
<stop offset="1" stop-color="#004DA9"/>
</linearGradient>
</defs>
</svg>
