<svg width="315" height="303" viewBox="0 0 315 303" fill="none" xmlns="http://www.w3.org/2000/svg">
<path d="M157.5 0L194.657 115.394H314.9L217.621 186.712L254.778 302.106L157.5 230.788L60.2215 302.106L97.3786 186.712L0.100143 115.394H120.343L157.5 0Z" fill="url(#paint0_linear_0_1)"/>
<path opacity="0.2" d="M122.648 146.68C122.421 147.413 122.061 148.047 121.568 148.58C121.075 149.113 120.475 149.52 119.768 149.8C119.075 150.067 118.288 150.2 117.408 150.2C116.221 150.2 115.181 149.927 114.288 149.38C113.408 148.82 112.721 148.033 112.228 147.02C111.735 146.007 111.488 144.8 111.488 143.4C111.488 142 111.735 140.793 112.228 139.78C112.721 138.767 113.408 137.987 114.288 137.44C115.181 136.88 116.215 136.6 117.388 136.6C118.308 136.6 119.108 136.727 119.788 136.98C120.468 137.233 121.035 137.613 121.488 138.12C121.941 138.627 122.281 139.253 122.508 140L121.968 140.26C121.648 139.207 121.115 138.42 120.368 137.9C119.621 137.367 118.635 137.1 117.408 137.1C116.341 137.1 115.408 137.36 114.608 137.88C113.808 138.387 113.181 139.113 112.728 140.06C112.288 140.993 112.068 142.107 112.068 143.4C112.068 144.693 112.288 145.813 112.728 146.76C113.181 147.693 113.808 148.42 114.608 148.94C115.408 149.447 116.341 149.7 117.408 149.7C118.595 149.7 119.595 149.42 120.408 148.86C121.235 148.287 121.795 147.493 122.088 146.48L122.648 146.68ZM128.037 139.8C128.97 139.8 129.79 140.007 130.497 140.42C131.204 140.833 131.757 141.433 132.157 142.22C132.557 142.993 132.757 143.92 132.757 145C132.757 146.08 132.557 147.013 132.157 147.8C131.757 148.573 131.204 149.167 130.497 149.58C129.79 149.993 128.97 150.2 128.037 150.2C127.13 150.2 126.324 149.993 125.617 149.58C124.91 149.167 124.35 148.573 123.937 147.8C123.537 147.013 123.337 146.08 123.337 145C123.337 143.92 123.537 142.993 123.937 142.22C124.35 141.433 124.91 140.833 125.617 140.42C126.324 140.007 127.13 139.8 128.037 139.8ZM128.057 140.28C127.23 140.28 126.504 140.473 125.877 140.86C125.264 141.233 124.777 141.773 124.417 142.48C124.07 143.173 123.897 144.013 123.897 145C123.897 145.973 124.07 146.813 124.417 147.52C124.777 148.227 125.264 148.773 125.877 149.16C126.504 149.533 127.23 149.72 128.057 149.72C128.87 149.72 129.584 149.533 130.197 149.16C130.824 148.773 131.31 148.227 131.657 147.52C132.004 146.813 132.177 145.973 132.177 145C132.177 144.013 132.004 143.173 131.657 142.48C131.31 141.773 130.824 141.233 130.197 140.86C129.584 140.473 128.87 140.28 128.057 140.28ZM134.541 150V140H135.061L135.081 142.46C135.321 141.673 135.801 141.033 136.521 140.54C137.241 140.047 138.087 139.8 139.061 139.8C140.034 139.8 140.841 140.04 141.481 140.52C142.121 141 142.521 141.687 142.681 142.58C142.827 142.033 143.094 141.553 143.481 141.14C143.867 140.713 144.341 140.38 144.901 140.14C145.474 139.887 146.094 139.76 146.761 139.76C147.507 139.76 148.154 139.907 148.701 140.2C149.261 140.48 149.694 140.893 150.001 141.44C150.321 141.973 150.481 142.633 150.481 143.42V149.96H149.921V143.48C149.921 142.44 149.627 141.647 149.041 141.1C148.454 140.54 147.667 140.26 146.681 140.26C145.947 140.26 145.287 140.433 144.701 140.78C144.114 141.113 143.647 141.567 143.301 142.14C142.967 142.713 142.801 143.347 142.801 144.04V150H142.221V143.52C142.221 142.48 141.927 141.687 141.341 141.14C140.754 140.58 139.967 140.3 138.981 140.3C138.274 140.3 137.621 140.467 137.021 140.8C136.434 141.133 135.967 141.593 135.621 142.18C135.274 142.753 135.101 143.393 135.101 144.1V150H134.541ZM152.838 150V140H153.358L153.378 142.46C153.618 141.673 154.098 141.033 154.818 140.54C155.538 140.047 156.384 139.8 157.358 139.8C158.331 139.8 159.138 140.04 159.778 140.52C160.418 141 160.818 141.687 160.978 142.58C161.124 142.033 161.391 141.553 161.778 141.14C162.164 140.713 162.638 140.38 163.198 140.14C163.771 139.887 164.391 139.76 165.058 139.76C165.804 139.76 166.451 139.907 166.998 140.2C167.558 140.48 167.991 140.893 168.298 141.44C168.618 141.973 168.778 142.633 168.778 143.42V149.96H168.218V143.48C168.218 142.44 167.924 141.647 167.338 141.1C166.751 140.54 165.964 140.26 164.978 140.26C164.244 140.26 163.584 140.433 162.998 140.78C162.411 141.113 161.944 141.567 161.598 142.14C161.264 142.713 161.098 143.347 161.098 144.04V150H160.518V143.52C160.518 142.48 160.224 141.687 159.638 141.14C159.051 140.58 158.264 140.3 157.278 140.3C156.571 140.3 155.918 140.467 155.318 140.8C154.731 141.133 154.264 141.593 153.918 142.18C153.571 142.753 153.398 143.393 153.398 144.1V150H152.838ZM171.395 138.04C171.221 138.04 171.081 137.987 170.975 137.88C170.868 137.773 170.815 137.633 170.815 137.46C170.815 137.287 170.868 137.147 170.975 137.04C171.081 136.933 171.228 136.88 171.415 136.88C171.588 136.88 171.728 136.933 171.835 137.04C171.941 137.147 171.995 137.287 171.995 137.46C171.995 137.633 171.941 137.773 171.835 137.88C171.728 137.987 171.581 138.04 171.395 138.04ZM171.695 140V150H171.135V140H171.695ZM175.278 137.28V147.44C175.278 148.173 175.438 148.733 175.758 149.12C176.078 149.507 176.571 149.7 177.238 149.7C177.598 149.7 177.925 149.64 178.218 149.52C178.511 149.387 178.771 149.2 178.998 148.96L179.238 149.42C179.025 149.647 178.738 149.833 178.378 149.98C178.018 150.127 177.625 150.2 177.198 150.2C176.678 150.2 176.225 150.1 175.838 149.9C175.465 149.7 175.185 149.4 174.998 149C174.811 148.587 174.718 148.08 174.718 147.48V137.44L175.278 137.28ZM179.098 140V140.48H172.718V140H179.098ZM180.938 137.28V147.44C180.938 148.173 181.098 148.733 181.418 149.12C181.738 149.507 182.231 149.7 182.898 149.7C183.258 149.7 183.585 149.64 183.878 149.52C184.171 149.387 184.431 149.2 184.658 148.96L184.898 149.42C184.685 149.647 184.398 149.833 184.038 149.98C183.678 150.127 183.285 150.2 182.858 150.2C182.338 150.2 181.885 150.1 181.498 149.9C181.125 149.7 180.845 149.4 180.658 149C180.471 148.587 180.378 148.08 180.378 147.48V137.44L180.938 137.28ZM184.758 140V140.48H178.378V140H184.758ZM189.732 150.2C188.839 150.2 188.039 149.993 187.332 149.58C186.626 149.167 186.066 148.573 185.652 147.8C185.239 147.013 185.032 146.08 185.032 145C185.032 143.907 185.232 142.973 185.632 142.2C186.046 141.427 186.592 140.833 187.272 140.42C187.952 140.007 188.719 139.8 189.572 139.8C190.466 139.8 191.226 140 191.852 140.4C192.492 140.8 192.979 141.367 193.312 142.1C193.659 142.82 193.832 143.68 193.832 144.68C193.832 144.733 193.832 144.793 193.832 144.86C193.832 144.913 193.826 144.96 193.812 145H185.372V144.5H193.572L193.312 144.62C193.299 143.327 192.966 142.287 192.312 141.5C191.672 140.7 190.759 140.3 189.572 140.3C188.812 140.3 188.132 140.487 187.532 140.86C186.932 141.233 186.459 141.773 186.112 142.48C185.766 143.173 185.592 144.013 185.592 145C185.592 145.987 185.766 146.833 186.112 147.54C186.472 148.233 186.959 148.767 187.572 149.14C188.199 149.513 188.912 149.7 189.712 149.7C190.512 149.7 191.226 149.513 191.852 149.14C192.479 148.767 192.952 148.253 193.272 147.6L193.732 147.86C193.506 148.34 193.192 148.753 192.792 149.1C192.392 149.447 191.932 149.72 191.412 149.92C190.892 150.107 190.332 150.2 189.732 150.2ZM199.572 150.2C198.679 150.2 197.879 149.993 197.172 149.58C196.465 149.167 195.905 148.573 195.492 147.8C195.079 147.013 194.872 146.08 194.872 145C194.872 143.907 195.072 142.973 195.472 142.2C195.885 141.427 196.432 140.833 197.112 140.42C197.792 140.007 198.559 139.8 199.412 139.8C200.305 139.8 201.065 140 201.692 140.4C202.332 140.8 202.819 141.367 203.152 142.1C203.499 142.82 203.672 143.68 203.672 144.68C203.672 144.733 203.672 144.793 203.672 144.86C203.672 144.913 203.665 144.96 203.652 145H195.212V144.5H203.412L203.152 144.62C203.139 143.327 202.805 142.287 202.152 141.5C201.512 140.7 200.599 140.3 199.412 140.3C198.652 140.3 197.972 140.487 197.372 140.86C196.772 141.233 196.299 141.773 195.952 142.48C195.605 143.173 195.432 144.013 195.432 145C195.432 145.987 195.605 146.833 195.952 147.54C196.312 148.233 196.799 148.767 197.412 149.14C198.039 149.513 198.752 149.7 199.552 149.7C200.352 149.7 201.065 149.513 201.692 149.14C202.319 148.767 202.792 148.253 203.112 147.6L203.572 147.86C203.345 148.34 203.032 148.753 202.632 149.1C202.232 149.447 201.772 149.72 201.252 149.92C200.732 150.107 200.172 150.2 199.572 150.2ZM152.405 164.8V178H151.665L143.605 166.52L142.925 165.42H142.905L142.945 166.72V178H142.405V164.8H143.125L151.185 176.28L151.885 177.4L151.865 176.08V164.8H152.405ZM164.228 164.8V165.3H159.268V178H158.708V165.3H153.728V164.8H164.228ZM174.321 164.8V165.3H169.361V178H168.801V165.3H163.821V164.8H174.321Z" fill="white"/>
<defs>
<linearGradient id="paint0_linear_0_1" x1="157.5" y1="0" x2="157.5" y2="334" gradientUnits="userSpaceOnUse">
<stop stop-color="#AAF431"/>
<stop offset="0.640625" stop-color="#416506"/>
</linearGradient>
</defs>
</svg>
