<svg width="315" height="303" viewBox="0 0 315 303" fill="none" xmlns="http://www.w3.org/2000/svg">
<path d="M157.5 0L194.657 115.394H314.9L217.621 186.712L254.778 302.106L157.5 230.788L60.2215 302.106L97.3786 186.712L0.100143 115.394H120.343L157.5 0Z" fill="url(#paint0_linear_0_1)"/>
<path d="M114.489 135.8V136.3H109.529V149H108.969V136.3H103.989V135.8H114.489ZM117.238 149.2C116.345 149.2 115.545 148.993 114.838 148.58C114.131 148.167 113.571 147.573 113.158 146.8C112.745 146.013 112.538 145.08 112.538 144C112.538 142.907 112.738 141.973 113.138 141.2C113.551 140.427 114.098 139.833 114.778 139.42C115.458 139.007 116.225 138.8 117.078 138.8C117.971 138.8 118.731 139 119.358 139.4C119.998 139.8 120.485 140.367 120.818 141.1C121.165 141.82 121.338 142.68 121.338 143.68C121.338 143.733 121.338 143.793 121.338 143.86C121.338 143.913 121.331 143.96 121.318 144H112.878V143.5H121.078L120.818 143.62C120.805 142.327 120.471 141.287 119.818 140.5C119.178 139.7 118.265 139.3 117.078 139.3C116.318 139.3 115.638 139.487 115.038 139.86C114.438 140.233 113.965 140.773 113.618 141.48C113.271 142.173 113.098 143.013 113.098 144C113.098 144.987 113.271 145.833 113.618 146.54C113.978 147.233 114.465 147.767 115.078 148.14C115.705 148.513 116.418 148.7 117.218 148.7C118.018 148.7 118.731 148.513 119.358 148.14C119.985 147.767 120.458 147.253 120.778 146.6L121.238 146.86C121.011 147.34 120.698 147.753 120.298 148.1C119.898 148.447 119.438 148.72 118.918 148.92C118.398 149.107 117.838 149.2 117.238 149.2ZM129.398 142.32C129.398 141.387 129.138 140.653 128.618 140.12C128.098 139.573 127.351 139.3 126.378 139.3C125.565 139.3 124.858 139.48 124.258 139.84C123.671 140.187 123.231 140.76 122.938 141.56L122.498 141.26C122.791 140.447 123.271 139.833 123.938 139.42C124.618 139.007 125.438 138.8 126.398 138.8C127.131 138.8 127.765 138.933 128.298 139.2C128.831 139.467 129.238 139.86 129.518 140.38C129.811 140.9 129.958 141.527 129.958 142.26V147.36C129.958 148.24 130.325 148.68 131.058 148.68C131.338 148.68 131.571 148.627 131.758 148.52L131.718 148.98C131.518 149.1 131.258 149.16 130.938 149.16C130.698 149.16 130.458 149.107 130.218 149C129.978 148.893 129.778 148.707 129.618 148.44C129.458 148.173 129.378 147.787 129.378 147.28V146.5L129.578 146.42C129.471 147.047 129.211 147.567 128.798 147.98C128.385 148.393 127.891 148.7 127.318 148.9C126.745 149.1 126.165 149.2 125.578 149.2C124.925 149.2 124.358 149.107 123.878 148.92C123.398 148.72 123.025 148.433 122.758 148.06C122.491 147.687 122.358 147.233 122.358 146.7C122.358 145.953 122.605 145.367 123.098 144.94C123.605 144.5 124.318 144.193 125.238 144.02L129.498 143.18V143.66L125.558 144.44C124.678 144.6 124.018 144.867 123.578 145.24C123.151 145.6 122.938 146.073 122.938 146.66C122.938 147.313 123.171 147.82 123.638 148.18C124.105 148.527 124.778 148.7 125.658 148.7C126.058 148.7 126.471 148.647 126.898 148.54C127.325 148.42 127.725 148.24 128.098 148C128.485 147.747 128.798 147.427 129.038 147.04C129.278 146.64 129.398 146.167 129.398 145.62V142.32ZM132.605 149V139H133.125L133.145 141.46C133.385 140.673 133.865 140.033 134.585 139.54C135.305 139.047 136.152 138.8 137.125 138.8C138.099 138.8 138.905 139.04 139.545 139.52C140.185 140 140.585 140.687 140.745 141.58C140.892 141.033 141.159 140.553 141.545 140.14C141.932 139.713 142.405 139.38 142.965 139.14C143.539 138.887 144.159 138.76 144.825 138.76C145.572 138.76 146.219 138.907 146.765 139.2C147.325 139.48 147.759 139.893 148.065 140.44C148.385 140.973 148.545 141.633 148.545 142.42V148.96H147.985V142.48C147.985 141.44 147.692 140.647 147.105 140.1C146.519 139.54 145.732 139.26 144.745 139.26C144.012 139.26 143.352 139.433 142.765 139.78C142.179 140.113 141.712 140.567 141.365 141.14C141.032 141.713 140.865 142.347 140.865 143.04V149H140.285V142.52C140.285 141.48 139.992 140.687 139.405 140.14C138.819 139.58 138.032 139.3 137.045 139.3C136.339 139.3 135.685 139.467 135.085 139.8C134.499 140.133 134.032 140.593 133.685 141.18C133.339 141.753 133.165 142.393 133.165 143.1V149H132.605ZM156.582 148.5H164.762V149H156.022V135.8H156.582V148.5ZM168.879 149.2C167.985 149.2 167.185 148.993 166.479 148.58C165.772 148.167 165.212 147.573 164.799 146.8C164.385 146.013 164.179 145.08 164.179 144C164.179 142.907 164.379 141.973 164.779 141.2C165.192 140.427 165.739 139.833 166.419 139.42C167.099 139.007 167.865 138.8 168.719 138.8C169.612 138.8 170.372 139 170.999 139.4C171.639 139.8 172.125 140.367 172.459 141.1C172.805 141.82 172.979 142.68 172.979 143.68C172.979 143.733 172.979 143.793 172.979 143.86C172.979 143.913 172.972 143.96 172.959 144H164.519V143.5H172.719L172.459 143.62C172.445 142.327 172.112 141.287 171.459 140.5C170.819 139.7 169.905 139.3 168.719 139.3C167.959 139.3 167.279 139.487 166.679 139.86C166.079 140.233 165.605 140.773 165.259 141.48C164.912 142.173 164.739 143.013 164.739 144C164.739 144.987 164.912 145.833 165.259 146.54C165.619 147.233 166.105 147.767 166.719 148.14C167.345 148.513 168.059 148.7 168.859 148.7C169.659 148.7 170.372 148.513 170.999 148.14C171.625 147.767 172.099 147.253 172.419 146.6L172.879 146.86C172.652 147.34 172.339 147.753 171.939 148.1C171.539 148.447 171.079 148.72 170.559 148.92C170.039 149.107 169.479 149.2 168.879 149.2ZM181.039 142.32C181.039 141.387 180.779 140.653 180.259 140.12C179.739 139.573 178.992 139.3 178.019 139.3C177.205 139.3 176.499 139.48 175.899 139.84C175.312 140.187 174.872 140.76 174.579 141.56L174.139 141.26C174.432 140.447 174.912 139.833 175.579 139.42C176.259 139.007 177.079 138.8 178.039 138.8C178.772 138.8 179.405 138.933 179.939 139.2C180.472 139.467 180.879 139.86 181.159 140.38C181.452 140.9 181.599 141.527 181.599 142.26V147.36C181.599 148.24 181.965 148.68 182.699 148.68C182.979 148.68 183.212 148.627 183.399 148.52L183.359 148.98C183.159 149.1 182.899 149.16 182.579 149.16C182.339 149.16 182.099 149.107 181.859 149C181.619 148.893 181.419 148.707 181.259 148.44C181.099 148.173 181.019 147.787 181.019 147.28V146.5L181.219 146.42C181.112 147.047 180.852 147.567 180.439 147.98C180.025 148.393 179.532 148.7 178.959 148.9C178.385 149.1 177.805 149.2 177.219 149.2C176.565 149.2 175.999 149.107 175.519 148.92C175.039 148.72 174.665 148.433 174.399 148.06C174.132 147.687 173.999 147.233 173.999 146.7C173.999 145.953 174.245 145.367 174.739 144.94C175.245 144.5 175.959 144.193 176.879 144.02L181.139 143.18V143.66L177.199 144.44C176.319 144.6 175.659 144.867 175.219 145.24C174.792 145.6 174.579 146.073 174.579 146.66C174.579 147.313 174.812 147.82 175.279 148.18C175.745 148.527 176.419 148.7 177.299 148.7C177.699 148.7 178.112 148.647 178.539 148.54C178.965 148.42 179.365 148.24 179.739 148C180.125 147.747 180.439 147.427 180.679 147.04C180.919 146.64 181.039 146.167 181.039 145.62V142.32ZM188.146 149.2C187.253 149.2 186.459 148.993 185.766 148.58C185.073 148.167 184.533 147.573 184.146 146.8C183.759 146.013 183.566 145.08 183.566 144C183.566 142.907 183.759 141.973 184.146 141.2C184.533 140.427 185.073 139.833 185.766 139.42C186.473 139.007 187.273 138.8 188.166 138.8C189.153 138.8 189.999 139.073 190.706 139.62C191.413 140.167 191.886 140.933 192.126 141.92L192.066 141.98V134.4H192.626V149H192.106L192.086 145.96L192.146 145.98C192.013 146.66 191.753 147.24 191.366 147.72C190.979 148.2 190.513 148.567 189.966 148.82C189.419 149.073 188.813 149.2 188.146 149.2ZM188.206 148.7C188.966 148.7 189.633 148.513 190.206 148.14C190.793 147.753 191.246 147.207 191.566 146.5C191.899 145.78 192.066 144.94 192.066 143.98C192.066 143.007 191.899 142.173 191.566 141.48C191.246 140.787 190.799 140.253 190.226 139.88C189.653 139.493 188.986 139.3 188.226 139.3C186.986 139.3 185.993 139.72 185.246 140.56C184.499 141.387 184.126 142.533 184.126 144C184.126 145.467 184.499 146.62 185.246 147.46C185.993 148.287 186.979 148.7 188.206 148.7ZM199.101 149.2C198.208 149.2 197.408 148.993 196.701 148.58C195.995 148.167 195.435 147.573 195.021 146.8C194.608 146.013 194.401 145.08 194.401 144C194.401 142.907 194.601 141.973 195.001 141.2C195.415 140.427 195.961 139.833 196.641 139.42C197.321 139.007 198.088 138.8 198.941 138.8C199.835 138.8 200.595 139 201.221 139.4C201.861 139.8 202.348 140.367 202.681 141.1C203.028 141.82 203.201 142.68 203.201 143.68C203.201 143.733 203.201 143.793 203.201 143.86C203.201 143.913 203.195 143.96 203.181 144H194.741V143.5H202.941L202.681 143.62C202.668 142.327 202.335 141.287 201.681 140.5C201.041 139.7 200.128 139.3 198.941 139.3C198.181 139.3 197.501 139.487 196.901 139.86C196.301 140.233 195.828 140.773 195.481 141.48C195.135 142.173 194.961 143.013 194.961 144C194.961 144.987 195.135 145.833 195.481 146.54C195.841 147.233 196.328 147.767 196.941 148.14C197.568 148.513 198.281 148.7 199.081 148.7C199.881 148.7 200.595 148.513 201.221 148.14C201.848 147.767 202.321 147.253 202.641 146.6L203.101 146.86C202.875 147.34 202.561 147.753 202.161 148.1C201.761 148.447 201.301 148.72 200.781 148.92C200.261 149.107 199.701 149.2 199.101 149.2ZM204.941 149V139H205.441L205.481 141.42C205.721 140.66 206.121 140.033 206.681 139.54C207.255 139.047 207.941 138.8 208.741 138.8C209.061 138.8 209.335 138.84 209.561 138.92C209.788 138.987 209.968 139.087 210.101 139.22L209.901 139.7C209.768 139.58 209.615 139.487 209.441 139.42C209.268 139.34 209.001 139.3 208.641 139.3C208.055 139.3 207.521 139.487 207.041 139.86C206.575 140.22 206.201 140.7 205.921 141.3C205.641 141.9 205.501 142.553 205.501 143.26V149H204.941ZM151.905 163.8V177H151.165L143.105 165.52L142.425 164.42H142.405L142.445 165.72V177H141.905V163.8H142.625L150.685 175.28L151.385 176.4L151.365 175.08V163.8H151.905ZM163.728 163.8V164.3H158.768V177H158.208V164.3H153.228V163.8H163.728ZM173.821 163.8V164.3H168.861V177H168.301V164.3H163.321V163.8H173.821Z" fill="black"/>
<defs>
<linearGradient id="paint0_linear_0_1" x1="157.5" y1="0" x2="157.5" y2="334" gradientUnits="userSpaceOnUse">
<stop offset="0.640625" stop-color="#F4A227"/>
<stop offset="1" stop-color="#FDFDFD"/>
</linearGradient>
</defs>
</svg>
