<svg width="1001" height="1003" viewBox="0 0 1001 1003" fill="none" xmlns="http://www.w3.org/2000/svg">
<g opacity="0.25">
<path d="M154.296 760.445H102.486C178.879 876.439 299.998 951.672 436.531 967.818V924.981C325.448 910.457 222.879 850.685 154.296 760.445Z" fill="#FC3D3D"/>
<path d="M102.193 442.956H71.0977L71.8171 438.106C84.3077 353.899 121.335 276.022 178.895 212.897C236.132 150.127 309.536 106.39 391.172 86.4156L393.935 85.7388L395.585 88.0728C405.993 102.801 422.872 111.594 440.735 111.594C471.293 111.594 496.154 86.5642 496.154 55.7972C496.154 25.0301 471.293 0 440.735 0C415.713 0 393.72 17.0169 387.255 41.3825L386.606 43.8238L384.164 44.4037C197.025 88.8858 54.2987 247.577 29.0038 439.287C26.9993 454.504 25.7223 470.016 25.2058 485.467H98.6881C98.7434 473.927 99.4854 458.567 102.193 442.956Z" fill="url(#paint0_linear_1532_250)"/>
<path d="M846.384 242.47H898.195C821.801 126.476 700.682 51.2457 564.15 35.0996V77.9391C675.234 92.459 777.803 152.231 846.384 242.47Z" fill="url(#paint1_linear_1532_250)"/>
<path d="M898.497 559.929H929.59L928.873 564.779C916.382 648.984 879.353 726.859 821.795 789.986C764.56 852.754 691.154 896.491 609.52 916.467L606.757 917.144L605.109 914.812C594.697 900.082 577.82 891.287 559.955 891.287C529.399 891.287 504.536 916.319 504.536 947.088C504.536 977.853 529.399 1002.89 559.955 1002.89C584.977 1002.89 606.97 985.868 613.439 961.5L614.087 959.057L616.53 958.475C803.664 913.999 946.394 755.308 971.686 563.598C973.691 548.402 974.966 532.887 975.486 517.418H902.002C901.945 528.966 901.203 544.328 898.497 559.929Z" fill="url(#paint2_linear_1532_250)"/>
<path d="M178.651 489.534C178.746 467.587 184.571 439.282 184.864 437.874C202.85 349.876 257.623 273.704 335.301 228.516V180.33C233.33 230.741 161.106 327.13 141.526 439.457C141.493 439.693 136.531 472.948 136.371 489.732C136.246 493.686 136.16 497.555 136.16 501.445C136.16 553.202 147.001 603.184 168.389 650.058H215.57C191.22 604.476 178.383 553.256 178.383 501.445C178.383 497.454 178.506 493.49 178.651 489.534Z" fill="#A5A6A5"/>
<path d="M957.482 363.825L955.121 363.293L954.395 360.969C950.526 348.573 946.172 336.377 941.454 324.721C934.768 308.216 927.086 291.967 918.604 276.388H581.071V157.495C567.035 153.469 552.867 150.319 538.848 148.111V276.388L436.537 276.39V148.111C422.517 150.319 408.348 153.469 394.314 157.495V280.295L391.192 281.128C329.524 297.599 286.455 353.949 286.455 418.164C286.455 424.693 286.935 431.412 287.879 438.136L288.556 442.954H219.423C216.09 456.766 214.901 472.888 214.545 485.466H673.728C670.866 482.49 668.005 479.764 665.086 477.238C639.543 455.13 606.991 442.954 573.425 442.954H331.756L331.027 439.642C329.469 432.551 328.678 425.327 328.678 418.164C328.678 363.431 372.905 318.902 427.266 318.902L892.807 318.9L893.939 321.337C901.129 336.833 907.479 353.061 912.812 369.573L913.722 372.392L911.398 374.214C897.792 384.881 889.991 400.901 889.991 418.164C889.991 448.891 914.821 473.891 945.34 473.891C975.859 473.891 1000.69 448.891 1000.69 418.164C1000.69 392.327 982.517 369.476 957.482 363.825Z" fill="#737373"/>
<path d="M564.152 854.768C578.168 852.564 592.335 849.415 606.375 845.387V722.587L609.495 721.753C671.165 705.285 714.236 648.931 714.236 584.718C714.236 578.18 713.757 571.465 712.81 564.75L712.129 559.929H781.264C784.601 546.119 785.79 529.994 786.146 517.418H326.964C329.819 520.386 332.682 523.114 335.609 525.648C361.144 547.754 393.694 559.929 427.262 559.929H668.931L669.66 563.239C671.222 570.33 672.013 577.557 672.013 584.718C672.013 639.45 627.786 683.98 573.421 683.98H107.88L106.748 681.541C99.5499 666.022 93.2021 649.793 87.8771 633.313L86.967 630.49L89.2913 628.67C102.895 618.001 110.698 601.983 110.698 584.718C110.698 553.99 85.8684 528.991 55.349 528.991C24.8296 528.991 0 553.99 0 584.718C0 610.555 18.1702 633.408 43.2068 639.058L45.568 639.591L46.2936 641.914C50.151 654.288 54.5066 666.48 59.2351 678.156C65.9211 694.665 73.6032 710.915 82.0847 726.491H419.618V845.387C433.659 849.415 447.826 852.564 461.839 854.768V726.491H564.152V854.768Z" fill="#737373"/>
<path d="M822.038 513.354C821.944 535.299 816.119 563.612 815.828 565.011C797.844 653.01 743.069 729.179 665.391 774.369V822.556C767.358 772.149 839.583 675.759 859.166 563.43C859.203 563.195 864.159 529.937 864.323 513.156C864.446 509.198 864.532 505.33 864.532 501.44C864.532 449.682 853.689 399.698 832.303 352.83H785.124C809.474 398.41 822.309 449.63 822.309 501.44C822.309 505.431 822.186 509.396 822.038 513.354Z" fill="#A5A6A5"/>
</g>
<defs>
<linearGradient id="paint0_linear_1532_250" x1="25.2058" y1="0" x2="25.2058" y2="486.032" gradientUnits="userSpaceOnUse">
<stop stop-color="#F5515F"/>
<stop offset="1" stop-color="#9F041B"/>
</linearGradient>
<linearGradient id="paint1_linear_1532_250" x1="564.15" y1="35.0996" x2="564.15" y2="242.192" gradientUnits="userSpaceOnUse">
<stop stop-color="#F5515F"/>
<stop offset="1" stop-color="#9F041B"/>
</linearGradient>
<linearGradient id="paint2_linear_1532_250" x1="504.536" y1="517.418" x2="504.536" y2="1003.45" gradientUnits="userSpaceOnUse">
<stop stop-color="#F5515F"/>
<stop offset="1" stop-color="#9F041B"/>
</linearGradient>
</defs>
</svg>
