<svg width="314" height="302" viewBox="0 0 314 302" fill="none" xmlns="http://www.w3.org/2000/svg">
<path d="M157 0L194.045 115.049L313.924 115.049L216.94 186.153L253.985 301.201L157 230.097L60.0154 301.201L97.0602 186.153L0.0756683 115.049L119.955 115.049L157 0Z" fill="url(#paint0_linear_0_1)"/>
<path opacity="0.2" d="M141.122 135.8V149H140.562V135.8H141.122ZM131.662 135.8V149H131.102V135.8H131.662ZM140.862 142.02V142.52H131.382V142.02H140.862ZM144.165 149V135.8H148.805C150.178 135.8 151.211 136.093 151.905 136.68C152.598 137.253 152.945 138.093 152.945 139.2C152.945 140.013 152.731 140.693 152.305 141.24C151.878 141.773 151.238 142.133 150.385 142.32V142.34C151.291 142.473 152.005 142.82 152.525 143.38C153.045 143.927 153.305 144.653 153.305 145.56C153.305 146.667 152.925 147.52 152.165 148.12C151.405 148.707 150.285 149 148.805 149H144.165ZM144.725 148.5H148.885C150.151 148.5 151.105 148.247 151.745 147.74C152.398 147.233 152.725 146.5 152.725 145.54C152.725 144.567 152.398 143.833 151.745 143.34C151.105 142.847 150.151 142.6 148.885 142.6H144.725V148.5ZM144.725 142.08H148.805C151.178 142.08 152.365 141.127 152.365 139.22C152.365 137.273 151.178 136.3 148.805 136.3H144.725V142.08ZM159.228 138.8C160.162 138.8 160.982 139.007 161.688 139.42C162.395 139.833 162.948 140.433 163.348 141.22C163.748 141.993 163.948 142.92 163.948 144C163.948 145.08 163.748 146.013 163.348 146.8C162.948 147.573 162.395 148.167 161.688 148.58C160.982 148.993 160.162 149.2 159.228 149.2C158.322 149.2 157.515 148.993 156.808 148.58C156.102 148.167 155.542 147.573 155.128 146.8C154.728 146.013 154.528 145.08 154.528 144C154.528 142.92 154.728 141.993 155.128 141.22C155.542 140.433 156.102 139.833 156.808 139.42C157.515 139.007 158.322 138.8 159.228 138.8ZM159.248 139.28C158.422 139.28 157.695 139.473 157.068 139.86C156.455 140.233 155.968 140.773 155.608 141.48C155.262 142.173 155.088 143.013 155.088 144C155.088 144.973 155.262 145.813 155.608 146.52C155.968 147.227 156.455 147.773 157.068 148.16C157.695 148.533 158.422 148.72 159.248 148.72C160.062 148.72 160.775 148.533 161.388 148.16C162.015 147.773 162.502 147.227 162.848 146.52C163.195 145.813 163.368 144.973 163.368 144C163.368 143.013 163.195 142.173 162.848 141.48C162.502 140.773 162.015 140.233 161.388 139.86C160.775 139.473 160.062 139.28 159.248 139.28ZM172.052 142.32C172.052 141.387 171.792 140.653 171.272 140.12C170.752 139.573 170.006 139.3 169.032 139.3C168.219 139.3 167.512 139.48 166.912 139.84C166.326 140.187 165.886 140.76 165.592 141.56L165.152 141.26C165.446 140.447 165.926 139.833 166.592 139.42C167.272 139.007 168.092 138.8 169.052 138.8C169.786 138.8 170.419 138.933 170.952 139.2C171.486 139.467 171.892 139.86 172.172 140.38C172.466 140.9 172.612 141.527 172.612 142.26V147.36C172.612 148.24 172.979 148.68 173.712 148.68C173.992 148.68 174.226 148.627 174.412 148.52L174.372 148.98C174.172 149.1 173.912 149.16 173.592 149.16C173.352 149.16 173.112 149.107 172.872 149C172.632 148.893 172.432 148.707 172.272 148.44C172.112 148.173 172.032 147.787 172.032 147.28V146.5L172.232 146.42C172.126 147.047 171.866 147.567 171.452 147.98C171.039 148.393 170.546 148.7 169.972 148.9C169.399 149.1 168.819 149.2 168.232 149.2C167.579 149.2 167.012 149.107 166.532 148.92C166.052 148.72 165.679 148.433 165.412 148.06C165.146 147.687 165.012 147.233 165.012 146.7C165.012 145.953 165.259 145.367 165.752 144.94C166.259 144.5 166.972 144.193 167.892 144.02L172.152 143.18V143.66L168.212 144.44C167.332 144.6 166.672 144.867 166.232 145.24C165.806 145.6 165.592 146.073 165.592 146.66C165.592 147.313 165.826 147.82 166.292 148.18C166.759 148.527 167.432 148.7 168.312 148.7C168.712 148.7 169.126 148.647 169.552 148.54C169.979 148.42 170.379 148.24 170.752 148C171.139 147.747 171.452 147.427 171.692 147.04C171.932 146.64 172.052 146.167 172.052 145.62V142.32ZM175.26 149V139H175.76L175.8 141.42C176.04 140.66 176.44 140.033 177 139.54C177.573 139.047 178.26 138.8 179.06 138.8C179.38 138.8 179.653 138.84 179.88 138.92C180.106 138.987 180.286 139.087 180.42 139.22L180.22 139.7C180.086 139.58 179.933 139.487 179.76 139.42C179.586 139.34 179.32 139.3 178.96 139.3C178.373 139.3 177.84 139.487 177.36 139.86C176.893 140.22 176.52 140.7 176.24 141.3C175.96 141.9 175.82 142.553 175.82 143.26V149H175.26ZM184.703 149.2C183.809 149.2 183.016 148.993 182.323 148.58C181.629 148.167 181.089 147.573 180.703 146.8C180.316 146.013 180.123 145.08 180.123 144C180.123 142.907 180.316 141.973 180.703 141.2C181.089 140.427 181.629 139.833 182.323 139.42C183.029 139.007 183.829 138.8 184.723 138.8C185.709 138.8 186.556 139.073 187.263 139.62C187.969 140.167 188.443 140.933 188.683 141.92L188.623 141.98V134.4H189.183V149H188.663L188.643 145.96L188.703 145.98C188.569 146.66 188.309 147.24 187.923 147.72C187.536 148.2 187.069 148.567 186.523 148.82C185.976 149.073 185.369 149.2 184.703 149.2ZM184.763 148.7C185.523 148.7 186.189 148.513 186.763 148.14C187.349 147.753 187.803 147.207 188.123 146.5C188.456 145.78 188.623 144.94 188.623 143.98C188.623 143.007 188.456 142.173 188.123 141.48C187.803 140.787 187.356 140.253 186.783 139.88C186.209 139.493 185.543 139.3 184.783 139.3C183.543 139.3 182.549 139.72 181.803 140.56C181.056 141.387 180.683 142.533 180.683 144C180.683 145.467 181.056 146.62 181.803 147.46C182.549 148.287 183.536 148.7 184.763 148.7ZM154.905 163.8V177H154.165L146.105 165.52L145.425 164.42H145.405L145.445 165.72V177H144.905V163.8H145.625L153.685 175.28L154.385 176.4L154.365 175.08V163.8H154.905ZM166.728 163.8V164.3H161.768V177H161.208V164.3H156.228V163.8H166.728ZM176.821 163.8V164.3H171.861V177H171.301V164.3H166.321V163.8H176.821Z" fill="white"/>
<defs>
<linearGradient id="paint0_linear_0_1" x1="157" y1="0" x2="157" y2="333" gradientUnits="userSpaceOnUse">
<stop offset="0.494792" stop-color="#004DA9"/>
<stop offset="1" stop-color="#4067F6"/>
</linearGradient>
</defs>
</svg>
