<svg width="180" height="180" viewBox="0 0 180 180" fill="none" xmlns="http://www.w3.org/2000/svg">
<path d="M131.25 89.0957H112.5" stroke="black" stroke-width="5.02986" stroke-miterlimit="10"/>
<path d="M120 130.354L103.125 107.854" stroke="black" stroke-width="5.02986" stroke-miterlimit="10"/>
<path d="M80.625 70.3535L69.375 44.1035" stroke="black" stroke-width="5.02986" stroke-miterlimit="10"/>
<path d="M76.8752 105.98L50.6252 137.855" stroke="black" stroke-width="5.02986" stroke-miterlimit="10"/>
<path d="M69.3757 85.3555L46.8757 79.7305" stroke="black" stroke-width="5.02986" stroke-miterlimit="10"/>
<path d="M121.875 49.7227L102.9 72.9727" stroke="black" stroke-width="5.02986" stroke-miterlimit="10"/>
<path d="M111.525 89.5504V90.0004C111.535 92.8334 110.986 95.6405 109.908 98.2607C108.831 100.881 107.247 103.263 105.247 105.269C103.247 107.276 100.871 108.868 98.2548 109.955C95.6383 111.041 92.8332 111.6 90.0001 111.6C84.3027 111.522 78.8616 109.219 74.8396 105.183C70.8175 101.147 68.5333 95.6981 68.4751 90.0004C68.4484 88.3307 68.6502 86.6653 69.0751 85.0504C69.8466 81.724 71.3984 78.6289 73.6023 76.0207C75.8063 73.4125 78.5991 71.366 81.7501 70.0504C84.3759 69 87.1723 68.4407 90.0001 68.4004C95.6271 68.4565 101.013 70.6912 105.027 74.6352C109.041 78.5791 111.37 83.9253 111.525 89.5504Z" stroke="black" stroke-width="5.02986" stroke-miterlimit="10"/>
<path d="M90.0006 103.125C97.2494 103.125 103.126 97.2487 103.126 90C103.126 82.7513 97.2494 76.875 90.0006 76.875C82.7519 76.875 76.8756 82.7513 76.8756 90C76.8756 97.2487 82.7519 103.125 90.0006 103.125Z" fill="#EE0033"/>
<path d="M125.625 51.5977C129.768 51.5977 133.125 48.2398 133.125 44.0977C133.125 39.9555 129.768 36.5977 125.625 36.5977C121.483 36.5977 118.125 39.9555 118.125 44.0977C118.125 48.2398 121.483 51.5977 125.625 51.5977Z" stroke="#EE0033" stroke-width="5.02986" stroke-miterlimit="10"/>
<path d="M39.3754 85.3516C43.5175 85.3516 46.8754 81.9937 46.8754 77.8516C46.8754 73.7094 43.5175 70.3516 39.3754 70.3516C35.2332 70.3516 31.8754 73.7094 31.8754 77.8516C31.8754 81.9937 35.2332 85.3516 39.3754 85.3516Z" stroke="#EE0033" stroke-width="5.02986" stroke-miterlimit="10"/>
<path d="M125.625 149.098C131.838 149.098 136.875 144.061 136.875 137.848C136.875 131.634 131.838 126.598 125.625 126.598C119.412 126.598 114.375 131.634 114.375 137.848C114.375 144.061 119.412 149.098 125.625 149.098Z" stroke="#EE0033" stroke-width="5.02986" stroke-miterlimit="10"/>
<path d="M41.2504 164.104C49.5346 164.104 56.2504 157.388 56.2504 149.104C56.2504 140.819 49.5346 134.104 41.2504 134.104C32.9661 134.104 26.2504 140.819 26.2504 149.104C26.2504 157.388 32.9661 164.104 41.2504 164.104Z" stroke="black" stroke-width="5.02986" stroke-miterlimit="10"/>
<path d="M142.5 100.346C148.713 100.346 153.75 95.3089 153.75 89.0957C153.75 82.8825 148.713 77.8457 142.5 77.8457C136.287 77.8457 131.25 82.8825 131.25 89.0957C131.25 95.3089 136.287 100.346 142.5 100.346Z" stroke="black" stroke-width="5.02986" stroke-miterlimit="10"/>
<path d="M63.7507 44.0996C69.9639 44.0996 75.0007 39.0628 75.0007 32.8496C75.0007 26.6364 69.9639 21.5996 63.7507 21.5996C57.5375 21.5996 52.5007 26.6364 52.5007 32.8496C52.5007 39.0628 57.5375 44.0996 63.7507 44.0996Z" stroke="black" stroke-width="5.02986" stroke-miterlimit="10"/>
</svg>
