<svg width="181" height="181" viewBox="0 0 181 181" fill="none" xmlns="http://www.w3.org/2000/svg">
<path d="M86.7296 95.1094H64.1046V155.518H86.7296V95.1094Z" stroke="#EE0033" stroke-width="5.02986" stroke-linejoin="round"/>
<path d="M150.833 93.3672H128.208V155.586H150.833V93.3672Z" stroke="#EE0033" stroke-width="5.02986" stroke-linejoin="round"/>
<path d="M161.241 155.586H19.8346V165.013H161.241V155.586Z" stroke="black" stroke-width="5.02986" stroke-linejoin="round"/>
<path d="M54.6773 116.447H32.0523V155.589H54.6773V116.447Z" stroke="black" stroke-width="5.02986" stroke-linejoin="round"/>
<path d="M118.781 118.176H96.1559V155.507H118.781V118.176Z" stroke="black" stroke-width="5.02986" stroke-linejoin="round"/>
<path d="M43.3648 87.7129C49.6125 87.7129 54.6773 82.6481 54.6773 76.4004C54.6773 70.1527 49.6125 65.0879 43.3648 65.0879C37.1171 65.0879 32.0523 70.1527 32.0523 76.4004C32.0523 82.6481 37.1171 87.7129 43.3648 87.7129Z" stroke="black" stroke-width="5.02986" stroke-linejoin="round"/>
<path d="M107.468 91.4844C113.716 91.4844 118.781 86.4196 118.781 80.1719C118.781 73.9242 113.716 68.8594 107.468 68.8594C101.221 68.8594 96.1559 73.9242 96.1559 80.1719C96.1559 86.4196 101.221 91.4844 107.468 91.4844Z" stroke="black" stroke-width="5.02986" stroke-linejoin="round"/>
<path d="M50.9061 68.8548L67.8748 53.7715" stroke="black" stroke-width="5.02986" stroke-linejoin="round"/>
<path d="M82.9583 53.7715L99.9271 72.6257" stroke="black" stroke-width="5.02986" stroke-linejoin="round"/>
<path d="M115.01 72.625L131.979 55.6562" stroke="black" stroke-width="5.02986" stroke-linejoin="round"/>
<path d="M75.4171 57.5469C81.6648 57.5469 86.7296 52.4821 86.7296 46.2344C86.7296 39.9867 81.6648 34.9219 75.4171 34.9219C69.1693 34.9219 64.1046 39.9867 64.1046 46.2344C64.1046 52.4821 69.1693 57.5469 75.4171 57.5469Z" stroke="#EE0033" stroke-width="5.02986" stroke-linejoin="round"/>
<path d="M139.521 59.4336C145.768 59.4336 150.833 54.3688 150.833 48.1211C150.833 41.8734 145.768 36.8086 139.521 36.8086C133.273 36.8086 128.208 41.8734 128.208 48.1211C128.208 54.3688 133.273 59.4336 139.521 59.4336Z" stroke="#EE0033" stroke-width="5.02986" stroke-linejoin="round"/>
</svg>
