<svg width="191" height="191" viewBox="0 0 191 191" fill="none" xmlns="http://www.w3.org/2000/svg">
<path d="M93.3514 111.266C106.537 111.266 117.226 100.576 117.226 87.3906C117.226 74.2048 106.537 63.5156 93.3514 63.5156C80.1656 63.5156 69.4764 74.2048 69.4764 87.3906C69.4764 100.576 80.1656 111.266 93.3514 111.266Z" stroke="black" stroke-width="5.02986" stroke-miterlimit="10"/>
<path d="M169.831 128.613C169.44 118.324 165.076 108.587 157.655 101.448C150.235 94.3098 140.336 90.3257 130.04 90.3331C134.151 90.3372 138.191 89.254 141.749 87.1935C145.307 85.1329 148.257 82.1682 150.299 78.6C152.342 75.0318 153.405 70.9869 153.38 66.8754C153.356 62.7639 152.244 58.732 150.159 55.1885C148.074 51.645 145.088 48.7159 141.506 46.6982C137.923 44.6805 133.871 43.6458 129.76 43.6992C125.649 43.7526 121.625 44.8921 118.096 47.0022C114.567 49.1123 111.659 52.1179 109.666 55.7143" stroke="#EE0033" stroke-width="5.02986" stroke-miterlimit="10"/>
<path d="M16.7924 128.613C17.1836 118.323 21.5481 108.587 28.9685 101.448C36.3889 94.3097 46.2875 90.3256 56.584 90.333C52.4758 90.3231 48.4432 89.2279 44.8943 87.1585C41.3454 85.089 38.4063 82.1187 36.3744 78.5482C34.3425 74.9776 33.29 70.9337 33.3234 66.8256C33.3568 62.7176 34.4749 58.6912 36.5646 55.1542C38.6543 51.6172 41.6413 48.6951 45.2234 46.6836C48.8054 44.6721 52.8553 43.6427 56.9631 43.6995C61.0709 43.7563 65.0908 44.8974 68.6158 47.0073C72.1409 49.1171 75.0459 52.1208 77.0369 55.7143" stroke="#EE0033" stroke-width="5.02986" stroke-miterlimit="10"/>
<path d="M139.033 159.166C139.033 158.529 139.033 157.813 139.033 157.176C139.033 145.04 134.212 133.401 125.63 124.819C117.048 116.237 105.409 111.416 93.2723 111.416C81.1358 111.416 69.4965 116.237 60.9148 124.819C52.333 133.401 47.5118 145.04 47.5118 157.176C47.5118 157.813 47.5118 158.529 47.5118 159.166" stroke="black" stroke-width="5.02986" stroke-miterlimit="10"/>
</svg>
