<svg width="186" height="186" viewBox="0 0 186 186" fill="none" xmlns="http://www.w3.org/2000/svg">
<path d="M108.501 141.829L114.081 147.409L120.591 140.899L115.011 135.319L139.501 110.906C143.059 113.131 147.309 113.979 151.449 113.29C155.589 112.6 159.334 110.421 161.98 107.162C164.625 103.904 165.988 99.7904 165.812 95.5969C165.636 91.4034 163.933 87.4189 161.024 84.3934C158.115 81.3679 154.2 79.5102 150.017 79.1699C145.834 78.8297 141.67 80.0304 138.31 82.546C134.951 85.0616 132.626 88.7186 131.775 92.8286C130.924 96.9385 131.604 101.218 133.688 104.861L85.9481 152.601L91.8381 158.491L97.4181 152.989L105.711 161.281L112.221 154.849L103.541 146.479L108.501 141.829Z" stroke="#EE0033" stroke-width="5.02986" stroke-miterlimit="10"/>
<path d="M82.15 86.6438C98.6288 86.6438 111.988 73.285 111.988 56.8062C111.988 40.3275 98.6288 26.9688 82.15 26.9688C65.6712 26.9688 52.3125 40.3275 52.3125 56.8062C52.3125 73.285 65.6712 86.6438 82.15 86.6438Z" stroke="black" stroke-width="5.02986" stroke-miterlimit="10"/>
<path d="M117.955 99.2794C109.555 92.536 99.4215 88.3018 88.7209 87.0643C78.0202 85.8268 67.1876 87.6363 57.4701 92.2845C47.7526 96.9327 39.5452 104.231 33.7929 113.338C28.0406 122.446 24.9772 132.992 24.9553 143.764C24.9553 144.617 24.9553 145.392 24.9553 146.244" stroke="black" stroke-width="5.02986" stroke-miterlimit="10"/>
</svg>
