<svg width="205" height="205" viewBox="0 0 205 205" fill="none" xmlns="http://www.w3.org/2000/svg">
<path d="M81.7432 83.1875L74.9099 87.1167V118.977L102.499 134.95L130.174 118.977V87.1167L123.341 83.1875" stroke="#EE0033" stroke-width="5.02986" stroke-linecap="round" stroke-linejoin="round"/>
<path d="M130.174 87.1172L102.499 103.005L74.9099 87.1172" stroke="#EE0033" stroke-width="5.02986" stroke-linecap="round" stroke-linejoin="round"/>
<path d="M102.5 134.952V103.006" stroke="#EE0033" stroke-width="5.02986" stroke-linecap="round" stroke-linejoin="round"/>
<path d="M81.6582 133.84L74.8248 137.769V169.629L102.5 185.602L130.089 169.629V137.769L123.256 133.84" stroke="black" stroke-width="5.02986" stroke-linecap="round" stroke-linejoin="round"/>
<path d="M130.089 137.77L102.5 153.742L74.8248 137.77" stroke="black" stroke-width="5.02986" stroke-linecap="round" stroke-linejoin="round"/>
<path d="M102.5 185.61V153.75" stroke="black" stroke-width="5.02986" stroke-linecap="round" stroke-linejoin="round"/>
<path d="M130.174 35.3577L102.499 19.3848L74.9099 35.3577V67.2181L102.499 83.191L130.174 67.2181V35.3577Z" stroke="black" stroke-width="5.02986" stroke-linecap="round" stroke-linejoin="round"/>
<path d="M130.174 35.3516L102.499 51.2391L74.9099 35.3516" stroke="black" stroke-width="5.02986" stroke-linecap="round" stroke-linejoin="round"/>
<path d="M102.5 83.1861V51.2402" stroke="black" stroke-width="5.02986" stroke-linecap="round" stroke-linejoin="round"/>
</svg>
