<svg width="183" height="183" viewBox="0 0 183 183" fill="none" xmlns="http://www.w3.org/2000/svg">
<path d="M91.4997 80.6686C108.513 80.6686 122.305 66.8767 122.305 49.8636C122.305 32.8505 108.513 19.0586 91.4997 19.0586C74.4866 19.0586 60.6947 32.8505 60.6947 49.8636C60.6947 66.8767 74.4866 80.6686 91.4997 80.6686Z" stroke="black" stroke-width="5.02986" stroke-linecap="round" stroke-linejoin="round"/>
<path d="M91.5761 72.8163C104.168 72.8163 114.375 62.6089 114.375 50.0175C114.375 37.4261 104.168 27.2188 91.5761 27.2188C78.9847 27.2188 68.7773 37.4261 68.7773 50.0175C68.7773 62.6089 78.9847 72.8163 91.5761 72.8163Z" stroke="black" stroke-width="3.35324" stroke-linecap="round" stroke-linejoin="round"/>
<path d="M91.4997 80.6686C108.513 80.6686 122.305 66.8767 122.305 49.8636C122.305 32.8505 108.513 19.0586 91.4997 19.0586C74.4866 19.0586 60.6947 32.8505 60.6947 49.8636C60.6947 66.8767 74.4866 80.6686 91.4997 80.6686Z" stroke="black" stroke-width="5.02986" stroke-linecap="round" stroke-linejoin="round"/>
<path d="M141.444 77.3867L91.4998 106.285L41.556 77.3867" stroke="black" stroke-width="5.02986" stroke-linecap="round" stroke-linejoin="round"/>
<path d="M91.5001 163.926V106.281" stroke="black" stroke-width="5.02986" stroke-linecap="round" stroke-linejoin="round"/>
<path d="M56.2723 68.9238L41.556 77.3876V135.109L91.4998 163.931L141.444 135.109V77.3876L126.804 68.9238" stroke="black" stroke-width="5.02986" stroke-linecap="round" stroke-linejoin="round"/>
<path d="M91.8814 57.5698H86.3152C86.0053 57.6277 85.6859 57.6079 85.3855 57.5121C85.0852 57.4164 84.8133 57.2476 84.5942 57.0209C84.375 56.7942 84.2156 56.5168 84.13 56.2134C84.0445 55.9099 84.0355 55.59 84.1039 55.2823V41.5573C84.05 41.255 84.0699 40.9441 84.162 40.6512C84.2541 40.3583 84.4155 40.0919 84.6327 39.8748C84.8498 39.6576 85.1161 39.4962 85.4091 39.4041C85.702 39.3121 86.0129 39.2921 86.3152 39.346H92.2627C92.9974 39.2623 93.7392 39.2623 94.4739 39.346C95.0956 39.4207 95.6938 39.6287 96.2277 39.956C96.6921 40.1761 97.0876 40.5189 97.3714 40.9473C97.7126 41.3219 97.9722 41.7633 98.1339 42.2435C98.2138 42.7487 98.2138 43.2633 98.1339 43.7685C98.14 44.6316 97.8796 45.4755 97.3883 46.1851C96.8971 46.8947 96.1988 47.4354 95.3889 47.7335C96.4186 47.9289 97.3478 48.4777 98.016 49.2851C98.6842 50.0926 99.0495 51.108 99.0489 52.156C99.0522 53.1584 98.7605 54.1395 98.2102 54.9773C97.7128 55.7529 96.9962 56.3633 96.1514 56.731C95.5419 56.991 94.9011 57.1705 94.2452 57.2648L91.8814 57.5698ZM87.7639 42.3198V47.0473H91.5002C92.205 47.187 92.9304 47.187 93.6352 47.0473C94.0723 46.7404 94.3731 46.2756 94.4739 45.751C94.5961 45.3796 94.5961 44.9787 94.4739 44.6073C94.5257 44.2364 94.4575 43.8586 94.2791 43.5293C94.1007 43.2001 93.8216 42.9365 93.4827 42.7773C92.5316 42.4288 91.5207 42.2733 90.5089 42.3198H87.7639ZM91.6527 49.9448H87.7639V55.2823H91.5002C94.0164 55.2823 95.2364 54.4435 95.2364 52.6135C95.2685 52.2322 95.2011 51.849 95.0407 51.5015C94.8803 51.154 94.6325 50.854 94.3214 50.631C93.5285 49.9444 92.5435 49.5184 91.5002 49.411L91.6527 49.9448Z" fill="#EE0033"/>
</svg>
