<svg width="182" height="182" viewBox="0 0 182 182" fill="none" xmlns="http://www.w3.org/2000/svg">
<path d="M136.993 72.2641V111.546H120.992V131.869H67.1504V83.8666H47.9646V61.4199H81.2554V90.7674H123.722V72.2641H136.993Z" stroke="#EE0033" stroke-width="5.02986" stroke-linecap="round" stroke-linejoin="round"/>
<path d="M81.2554 18.9551V90.9967H123.722V18.9551H81.2554Z" stroke="black" stroke-width="5.02986" stroke-linecap="round" stroke-linejoin="round"/>
<path d="M121.144 111.549V163.04H151.477V111.549H121.144Z" stroke="black" stroke-width="5.02986" stroke-linecap="round" stroke-linejoin="round"/>
<path d="M30.523 83.8711V144.538H67.1505V83.8711H30.523Z" stroke="black" stroke-width="5.02986" stroke-linecap="round" stroke-linejoin="round"/>
<path d="M39.3195 95.543H59.4154" stroke="black" stroke-width="3.35324" stroke-linecap="round" stroke-linejoin="round"/>
<path d="M39.3195 104.488H59.4154" stroke="black" stroke-width="3.35324" stroke-linecap="round" stroke-linejoin="round"/>
<path d="M39.3195 113.449H59.4154" stroke="black" stroke-width="3.35324" stroke-linecap="round" stroke-linejoin="round"/>
<path d="M57.2165 138.089C59.6875 138.089 61.6906 136.086 61.6906 133.615C61.6906 131.144 59.6875 129.141 57.2165 129.141C54.7455 129.141 52.7423 131.144 52.7423 133.615C52.7423 136.086 54.7455 138.089 57.2165 138.089Z" fill="black"/>
<path d="M129.258 120.652H142.377" stroke="black" stroke-width="3.35324" stroke-linecap="round" stroke-linejoin="round"/>
<path d="M129.258 129.363H142.377" stroke="black" stroke-width="3.35324" stroke-linecap="round" stroke-linejoin="round"/>
<path d="M129.258 138.846H142.377" stroke="black" stroke-width="3.35324" stroke-linecap="round" stroke-linejoin="round"/>
<path d="M141.543 155.983C143.302 155.983 144.728 154.557 144.728 152.798C144.728 151.039 143.302 149.613 141.543 149.613C139.784 149.613 138.358 151.039 138.358 152.798C138.358 154.557 139.784 155.983 141.543 155.983Z" fill="black"/>
<path d="M90.1281 30.8613H115.684" stroke="black" stroke-width="3.35324" stroke-linecap="round" stroke-linejoin="round"/>
<path d="M90.1281 40.6465H115.684" stroke="black" stroke-width="3.35324" stroke-linecap="round" stroke-linejoin="round"/>
<path d="M90.1281 50.4961H115.684" stroke="black" stroke-width="3.35324" stroke-linecap="round" stroke-linejoin="round"/>
<path d="M112.499 83.7125C115.305 83.7125 117.58 81.4377 117.58 78.6316C117.58 75.8255 115.305 73.5508 112.499 73.5508C109.693 73.5508 107.418 75.8255 107.418 78.6316C107.418 81.4377 109.693 83.7125 112.499 83.7125Z" fill="black"/>
</svg>
