<svg width="203" height="203" viewBox="0 0 203 203" fill="none" xmlns="http://www.w3.org/2000/svg">
<path d="M57.6014 137.958C77.7352 137.958 94.0568 121.636 94.0568 101.502C94.0568 81.3685 77.7352 65.0469 57.6014 65.0469C37.4676 65.0469 21.146 81.3685 21.146 101.502C21.146 121.636 37.4676 137.958 57.6014 137.958Z" stroke="black" stroke-width="5.02986" stroke-miterlimit="10"/>
<path d="M145.399 137.958C165.533 137.958 181.854 121.636 181.854 101.502C181.854 81.3685 165.533 65.0469 145.399 65.0469C125.265 65.0469 108.943 81.3685 108.943 101.502C108.943 121.636 125.265 137.958 145.399 137.958Z" stroke="black" stroke-width="5.02986" stroke-miterlimit="10"/>
<path d="M69.3585 162.906H126.791C127.725 162.906 128.482 162.149 128.482 161.215V156.055C128.482 155.121 127.725 154.363 126.791 154.363H69.3585C68.4243 154.363 67.6669 155.121 67.6669 156.055V161.215C67.6669 162.149 68.4243 162.906 69.3585 162.906Z" fill="#EE0033"/>
<path d="M138.633 158.349L126.791 169.176V147.607L138.633 158.349Z" fill="#EE0033"/>
<path d="M136.941 40.1855H79.5087C78.5744 40.1855 77.817 40.9429 77.817 41.8772V47.0368C77.817 47.9711 78.5744 48.7285 79.5087 48.7285H136.941C137.875 48.7285 138.632 47.9711 138.632 47.0368V41.8772C138.632 40.9429 137.875 40.1855 136.941 40.1855Z" fill="#EE0033"/>
<path d="M67.5822 44.1561L79.4238 54.9828V33.4141L67.5822 44.1561Z" fill="#EE0033"/>
<path d="M53.7954 121.296C51.5177 120.807 49.5031 119.489 48.1431 117.598C46.7831 115.706 46.1749 113.377 46.4367 111.062V108.186H52.865V111.485C52.865 114.191 54.2183 115.291 56.4175 115.291C58.6167 115.291 59.97 114.191 59.97 111.4C59.97 108.609 58.7013 106.071 54.1338 102.434C51.9301 101.154 50.0899 99.3319 48.7873 97.1413C47.4847 94.9506 46.763 92.4636 46.6904 89.916C46.4277 87.6677 47.009 85.402 48.3217 83.5579C49.6344 81.7139 51.585 80.4229 53.7954 79.9352V76.1289H59.2088V79.9352C61.4763 80.3687 63.4924 81.6523 64.8446 83.5234C66.1968 85.3945 66.7829 87.7116 66.4829 90.0006V91.2693H60.2238V89.5777C60.2238 86.9556 59.0396 85.7714 56.8404 85.7714C54.6413 85.7714 53.4571 86.9556 53.4571 89.4931C53.4571 92.0306 54.7259 94.4835 59.2934 97.9514C61.5126 99.2983 63.3575 101.182 64.6582 103.428C65.9589 105.675 66.6737 108.213 66.7367 110.808C67.0612 113.187 66.4617 115.601 65.0615 117.551C63.6613 119.502 61.5668 120.842 59.2088 121.296V125.61H53.7954V121.296Z" fill="black"/>
<path d="M142.607 121.296C140.345 120.789 138.351 119.464 137.008 117.574C135.665 115.684 135.068 113.365 135.333 111.062V108.186H141.762V111.485C141.762 114.191 143.115 115.291 145.314 115.291C147.513 115.291 148.867 114.191 148.867 111.4C148.867 108.609 147.598 106.071 143.03 102.434C140.779 101.185 138.888 99.3773 137.54 97.1845C136.192 94.9917 135.432 92.4883 135.333 89.916C135.071 87.6677 135.652 85.402 136.965 83.5579C138.277 81.7139 140.228 80.4229 142.438 79.9352V76.1289H148.021V79.9352C150.288 80.3687 152.304 81.6523 153.657 83.5234C155.009 85.3945 155.595 87.7116 155.295 90.0006V91.2693H148.867V89.5777C148.867 86.9556 147.682 85.7714 145.483 85.7714C143.284 85.7714 142.1 86.9556 142.1 89.4931C142.1 92.0306 143.369 94.4835 147.936 97.9514C150.155 99.2983 152 101.182 153.301 103.428C154.602 105.675 155.317 108.213 155.38 110.808C155.664 113.136 155.066 115.487 153.704 117.397C152.342 119.307 150.315 120.637 148.021 121.127V125.441H142.438L142.607 121.296Z" fill="black"/>
</svg>
