<svg width="1376" height="172" viewBox="0 0 1376 172" fill="none" xmlns="http://www.w3.org/2000/svg">
<path opacity="0.5" d="M1318.55 103.25L1317.58 102.1L1269.96 45.74L1269.13 44.76L1227.61 -4.38L1192.25 -46.23L1191.63 -46.96L1160.15 -84.22L1132.37 -117.1L1108.11 -145.81L1107.68 -146.32L1085.59 -172.47L1065.71 -196H310.3L290.03 -172.01L268.32 -146.32L267.89 -145.81L243.63 -117.1L243.15 -116.53L215.3 -83.58L184.36 -46.96L183.74 -46.23L147.67 -3.53998L106.86 44.76L106.03 45.74L57.44 103.24L0 171.23H1375.99L1318.55 103.25ZM1316.11 102.11H1203.25L1164.28 45.75H1268.6L1316.11 102.11ZM645.63 -83.57H730.37L733.14 -46.95H642.85L645.63 -83.57ZM641.68 -46.95H551.4L559.79 -83.57H644.52L641.68 -46.95ZM731.48 -83.57H816.21L824.6 -46.95H734.32L731.48 -83.57ZM817.32 -83.57H902.06L916.07 -46.95H825.78L817.32 -83.57ZM817.17 -84.21L809.7 -116.52H889.45L901.81 -84.21H817.17ZM816.06 -84.21H731.42L728.91 -116.52H808.65L816.06 -84.21ZM730.32 -84.21H645.67L648.12 -116.52H727.87L730.32 -84.21ZM644.57 -84.21H559.93L567.33 -116.52H647.07L644.57 -84.21ZM558.82 -84.21H474.18L486.54 -116.52H566.28L558.82 -84.21ZM558.68 -83.57L550.22 -46.95H459.94L473.95 -83.57H558.68ZM550.04 -46.22L540.37 -4.37H443.64L459.65 -46.22H550.04ZM551.23 -46.22H641.62L638.37 -4.37H541.64L551.23 -46.22ZM642.8 -46.22H733.2L736.37 -4.37H639.63L642.8 -46.22ZM734.38 -46.22H824.77L834.36 -4.37H737.63L734.38 -46.22ZM825.95 -46.22H916.35L932.36 -4.37H835.62L825.95 -46.22ZM917.53 -46.22H1007.92L1030.36 -4.37H933.63L917.53 -46.22ZM917.25 -46.95L903.17 -83.57H987.9L1007.53 -46.95H917.25ZM902.92 -84.21L890.49 -116.52H970.23L987.55 -84.21H902.92ZM890.27 -117.1L879.23 -145.81H954.54L969.93 -117.1H890.27ZM889.23 -117.1H809.57L802.93 -145.81H878.24L889.23 -117.1ZM808.53 -117.1H728.87L726.64 -145.81H801.95L808.53 -117.1ZM727.83 -117.1H648.17L650.34 -145.81H725.66L727.83 -117.1ZM647.13 -117.1H567.47L574.05 -145.81H649.36L647.13 -117.1ZM566.43 -117.1H486.77L497.76 -145.81H573.07L566.43 -117.1ZM485.73 -117.1H406.07L421.46 -145.81H496.77L485.73 -117.1ZM485.51 -116.53L473.08 -84.22H388.44L405.76 -116.53H485.51ZM472.84 -83.57L458.76 -46.95H368.48L388.11 -83.57H472.84ZM458.47 -46.22L442.37 -4.37H345.64L368.08 -46.22H458.47ZM442.05 -3.52997L423.47 44.77H319.3L345.19 -3.52997H442.05ZM443.32 -3.52997H540.18L529.02 44.77H424.84L443.32 -3.52997ZM541.45 -3.52997H638.31L634.56 44.77H530.38L541.45 -3.52997ZM639.57 -3.52997H736.44L740.1 44.77H635.91L639.57 -3.52997ZM737.7 -3.52997H834.56L845.63 44.77H741.45L737.7 -3.52997ZM835.82 -3.52997H932.69L951.17 44.77H846.98L835.82 -3.52997ZM933.95 -3.52997H1030.81L1056.7 44.77H952.53L933.95 -3.52997ZM1032.07 -3.52997H1128.94L1162.24 44.77H1058.06L1032.07 -3.52997ZM1031.62 -4.37L1009.1 -46.22H1099.5L1128.36 -4.37H1031.62ZM1008.71 -46.95L989 -83.57H1073.74L1098.99 -46.95H1008.71ZM988.66 -84.21L971.27 -116.52H1051.02L1073.3 -84.21H988.66ZM970.96 -117.1L955.51 -145.81H1030.83L1050.63 -117.1H970.96ZM955.24 -146.32L941.42 -172.01H1012.77L1030.48 -146.32H955.24ZM954.26 -146.32H879.03L869.15 -172.01H940.49L954.26 -146.32ZM878.05 -146.32H802.81L796.87 -172.01H868.22L878.05 -146.32ZM801.83 -146.32H726.6L724.6 -172.01H795.94L801.83 -146.32ZM725.62 -146.32H650.38L652.33 -172.01H723.68L725.62 -146.32ZM649.4 -146.32H574.17L580.06 -172.01H651.4L649.4 -146.32ZM573.18 -146.32H497.95L507.78 -172.01H579.12L573.18 -146.32ZM496.97 -146.32H421.74L435.51 -172.01H506.85L496.97 -146.32ZM420.75 -146.32H345.52L363.23 -172.01H434.57L420.75 -146.32ZM420.48 -145.81L405.03 -117.1H325.37L345.17 -145.81H420.48ZM404.72 -116.53L387.33 -84.22H302.7L324.98 -116.53H404.72ZM386.99 -83.57L367.29 -46.95H277.01L302.26 -83.57H386.99ZM366.89 -46.22L344.37 -4.37H247.64L276.5 -46.22H366.89ZM343.92 -3.52997L317.93 44.77H213.76L247.06 -3.52997H343.92ZM317.4 45.75L287.08 102.11H174.22L213.08 45.75H317.4ZM318.78 45.75H423.1L401.42 102.11H288.57L318.78 45.75ZM424.46 45.75H528.78L515.75 102.11H402.89L424.46 45.75ZM530.15 45.75H634.47L630.09 102.11H517.24L530.15 45.75ZM635.84 45.75H740.17L744.44 102.11H631.57L635.84 45.75ZM741.53 45.75H845.85L858.77 102.11H745.91L741.53 45.75ZM847.21 45.75H951.54L973.11 102.11H860.24L847.21 45.75ZM952.91 45.75H1057.23L1087.44 102.11H974.58L952.91 45.75ZM1058.59 45.75H1162.92L1201.78 102.11H1088.91L1058.59 45.75ZM1267.78 44.77H1163.6L1130.2 -3.52997H1227.06L1267.78 44.77ZM1226.35 -4.37H1129.62L1100.68 -46.22H1191.07L1226.35 -4.37ZM1190.45 -46.95H1100.17L1074.85 -83.57H1159.58L1190.45 -46.95ZM1159.04 -84.21H1074.4L1052.06 -116.52H1131.8L1159.04 -84.21ZM1131.32 -117.1H1051.66L1031.8 -145.81H1107.11L1131.32 -117.1ZM1106.69 -146.32H1031.46L1013.7 -172.01H1085.04L1106.69 -146.32ZM1065.16 -195.58L1084.65 -172.46H1013.38L997.39 -195.58H1065.16ZM996.51 -195.58L1012.45 -172.46H941.17L928.73 -195.58H996.51ZM927.85 -195.58L940.24 -172.46H868.97L860.08 -195.58H927.85ZM859.2 -195.58L868.05 -172.46H796.77L791.43 -195.58H859.2ZM790.54 -195.58L795.84 -172.46H724.57L722.77 -195.58H790.54ZM654.11 -195.58H721.89L723.64 -172.46H652.36L654.11 -195.58ZM585.46 -195.58H653.23L651.43 -172.46H580.16L585.46 -195.58ZM516.8 -195.58H584.57L579.23 -172.46H507.96L516.8 -195.58ZM448.15 -195.58H515.92L507.03 -172.46H435.76L448.15 -195.58ZM379.49 -195.58H447.26L434.82 -172.46H363.55L379.49 -195.58ZM310.83 -195.58H378.61L362.62 -172.46H291.34L310.83 -195.58ZM290.96 -172.01H362.31L344.55 -146.32H269.3L290.96 -172.01ZM268.87 -145.81H344.19L324.33 -117.1H244.67L268.87 -145.81ZM244.19 -116.53H323.94L301.6 -84.22H216.95L244.19 -116.53ZM216.41 -83.57H301.15L275.83 -46.95H185.54L216.41 -83.57ZM184.92 -46.22H275.32L246.38 -4.37H149.64L184.92 -46.22ZM148.93 -3.52997H245.8L212.4 44.77H108.22L148.93 -3.52997ZM107.39 45.75H211.72L172.75 102.11H59.88L107.39 45.75ZM125.89 169.87H2.76L58.92 103.26H171.96L125.89 169.87ZM250.62 169.87H127.5L173.43 103.26H286.46L250.62 169.87ZM375.36 169.87H252.24L287.95 103.26H400.98L375.36 169.87ZM500.09 169.87H376.97L402.46 103.26H515.49L500.09 169.87ZM624.83 169.87H501.71L516.98 103.26H630.01L624.83 169.87ZM626.44 169.87L631.48 103.26H744.52L749.57 169.87H626.44ZM751.18 169.87L746 103.25H859.03L874.3 169.86H751.18V169.87ZM875.9 169.87L860.5 103.26H973.54L999.03 169.87H875.9ZM1000.65 169.87L975.03 103.26H1088.06L1123.77 169.87H1000.65ZM1125.37 169.87L1089.53 103.26H1202.57L1248.5 169.87H1125.37ZM1250.11 169.87L1204.04 103.26H1317.07L1373.23 169.87H1250.11Z" fill="url(#paint0_linear_1_974)"/>
<defs>
<linearGradient id="paint0_linear_1_974" x1="687.996" y1="-38.7894" x2="687.996" y2="-196.263" gradientUnits="userSpaceOnUse">
<stop stop-color="white"/>
<stop offset="0.0439" stop-color="#004DA9"/>
<stop offset="0.3732" stop-color="white"/>
<stop offset="0.6537" stop-color="#001D43"/>
<stop offset="0.8715" stop-color="#001128"/>
<stop offset="1" stop-color="white"/>
</linearGradient>
</defs>
</svg>
