<svg width="161" height="161" viewBox="0 0 161 161" fill="none" xmlns="http://www.w3.org/2000/svg">
<path d="M40.2386 38.8964C35.4044 40.4676 31.0358 43.214 27.5243 46.8893C24.0129 50.5646 21.4685 55.0539 20.1192 59.9547C15.8271 75.5137 22.5335 94.8284 38.9644 100.194C43.393 101.293 47.9973 101.492 52.5042 100.778C57.011 100.064 61.3285 98.4516 65.2004 96.0372C69.0724 93.6227 72.4198 90.455 75.0441 86.7221C77.6684 82.9892 79.5161 78.7672 80.4775 74.3066C83.2271 60.1559 79.9409 44.7981 65.1867 39.2317C57.1559 36.2585 48.3464 36.1401 40.2386 38.8964Z" stroke="black" stroke-width="6.70647" stroke-linecap="round" stroke-linejoin="round"/>
<path d="M42.1165 79.4672C46.2075 79.4672 53.0481 79.4672 55.9319 75.4433C60.0899 69.7428 55.1271 65.3836 49.2254 66.4566C52.8469 64.78 55.06 62.2986 53.7858 59.2137C51.7739 54.1167 44.8662 57.3358 41.7141 58.2077C41.1378 65.2898 41.2726 72.4119 42.1165 79.4672Z" stroke="black" stroke-width="5.02986" stroke-linecap="round" stroke-linejoin="round"/>
<path d="M121.857 11.4037C115.635 11.1649 109.508 12.9795 104.42 16.5677C100.589 19.3916 97.5581 23.1638 95.6262 27.5136C93.6942 31.8634 92.9273 36.641 93.4009 41.377C93.8745 46.1129 95.5723 50.6441 98.3273 54.5252C101.082 58.4063 104.8 61.5037 109.115 63.513C112.814 65.0129 116.801 65.6683 120.786 65.4314C124.771 65.1944 128.653 64.0711 132.149 62.1434C135.644 60.2157 138.665 57.5322 140.992 54.2884C143.319 51.0447 144.892 47.3226 145.598 43.3936C146.538 39.6964 146.643 35.8362 145.905 32.0935C145.166 28.3508 143.604 24.8195 141.33 21.7561C139.057 18.6927 136.13 16.1742 132.761 14.3835C129.393 12.5928 125.668 11.5749 121.857 11.4037Z" stroke="black" stroke-width="6.70647" stroke-linecap="round" stroke-linejoin="round"/>
<path d="M116.76 37.8281H124.606" stroke="black" stroke-width="5.02986" stroke-linecap="round" stroke-linejoin="round"/>
<path d="M125.277 47.4863C120.784 47.8886 115.62 47.8886 115.62 47.8886C115.62 44.4683 115.62 40.1762 115.62 38.4996C115.62 36.823 116.022 31.1895 116.022 30.5859H123.265" stroke="black" stroke-width="5.02986" stroke-linecap="round" stroke-linejoin="round"/>
<path d="M116.424 87.7209C112.463 86.5916 108.268 86.5696 104.295 87.6574C100.322 88.7452 96.7238 90.9011 93.8905 93.8908C91.3099 96.2937 89.2725 99.2202 87.915 102.474C86.5574 105.729 85.911 109.235 86.0189 112.76C86.1269 116.284 86.9867 119.745 88.5409 122.91C90.0951 126.075 92.3077 128.871 95.0306 131.112C112.937 144.525 139.696 125.545 132.788 104.286C131.618 100.4 129.516 96.8583 126.663 93.971C123.811 91.0837 120.296 88.938 116.424 87.7209Z" stroke="black" stroke-width="6.70647" stroke-linecap="round" stroke-linejoin="round"/>
<path d="M110.657 104.079C109.537 104.296 108.475 104.743 107.537 105.391C106.599 106.039 105.806 106.875 105.207 107.846C104.608 108.816 104.217 109.9 104.059 111.03C103.9 112.159 103.977 113.309 104.286 114.407C107.505 124.802 120.113 118.095 118.503 109.511C118.35 108.637 118.025 107.801 117.546 107.054C117.067 106.306 116.445 105.661 115.715 105.155C114.985 104.65 114.162 104.295 113.294 104.11C112.426 103.925 111.529 103.914 110.657 104.079Z" stroke="black" stroke-width="5.02986" stroke-linecap="round" stroke-linejoin="round"/>
<path d="M118.034 68.1387C118.034 74.3086 118.034 80.5457 118.034 86.7156" stroke="black" stroke-width="6.70647" stroke-linecap="round" stroke-linejoin="round"/>
<path d="M75.4478 88.4551C80.7563 90.9242 85.9278 93.6779 90.9398 96.704" stroke="black" stroke-width="6.70647" stroke-linecap="round" stroke-linejoin="round"/>
<path d="M79.2706 48.819C84.0322 47.0082 88.7938 45.0634 93.4883 43.1855" stroke="black" stroke-width="6.70647" stroke-linecap="round" stroke-linejoin="round"/>
</svg>
