<svg width="161" height="161" viewBox="0 0 161 161" fill="none" xmlns="http://www.w3.org/2000/svg">
<path d="M124.226 51.9942C123.555 74.9304 122.929 97.8218 122.348 120.669C122.348 125.497 122.348 130.393 121.879 135.155C121.879 137.904 121.074 142.465 117.721 143.068C106.852 144.22 95.9103 144.534 84.9932 144.007L50.2536 143.94H37.7125C34.3875 144.378 31.0057 143.915 27.9211 142.599C26.1774 141.794 27.1834 131.265 27.1834 128.448V111.078V76.4058V51.726V39.2519C27.1834 36.4352 26.1774 31.4724 28.1893 29.1252C30.6222 28.0996 33.2873 27.752 35.9018 28.1192C39.0538 28.1192 42.0717 28.1192 45.2238 28.1192C60.4475 28.1192 75.7382 28.1192 91.029 27.7168" stroke="black" stroke-width="6.70647" stroke-linecap="round" stroke-linejoin="round"/>
<path d="M133.213 17.4589C131.704 16.7659 130.025 16.5326 128.384 16.7883H121.678C116.782 16.7883 111.886 16.7883 106.99 17.4589C105.783 17.4589 104.576 17.4589 104.643 18.9344C104.643 22.6229 104.643 26.3115 104.643 30.0001V35.5664C104.643 36.6395 104.241 38.182 105.381 38.7855C106.548 39.2633 107.814 39.4475 109.069 39.3221C115.776 39.3221 122.482 38.9197 129.591 38.9197C130.597 38.9197 132.006 38.9197 132.81 38.5843C134.755 37.176 133.883 34.0239 133.749 31.8779L133.347 24.0313C133.522 21.7879 133.387 19.5311 132.944 17.3248L133.213 17.4589Z" stroke="black" stroke-width="6.70647" stroke-linecap="round" stroke-linejoin="round"/>
<path d="M44.5532 50.9271L81.9753 50.3906" stroke="black" stroke-width="6.70647" stroke-linecap="round" stroke-linejoin="round"/>
<path d="M44.2855 71.1778L80.8358 70.5742" stroke="black" stroke-width="6.70647" stroke-linecap="round" stroke-linejoin="round"/>
<path d="M80.0978 87.6035L106.119 88.14" stroke="black" stroke-width="6.70647" stroke-linecap="round" stroke-linejoin="round"/>
<path d="M79.1588 111.282C87.676 110.612 96.4615 111.282 104.979 111.282" stroke="black" stroke-width="6.70647" stroke-linecap="round" stroke-linejoin="round"/>
<path d="M64.6725 90.8933C66.5615 90.8933 68.0928 89.362 68.0928 87.473C68.0928 85.5841 66.5615 84.0527 64.6725 84.0527C62.7835 84.0527 61.2522 85.5841 61.2522 87.473C61.2522 89.362 62.7835 90.8933 64.6725 90.8933Z" fill="black"/>
<path d="M64.9411 113.698C66.83 113.698 68.3614 112.167 68.3614 110.278C68.3614 108.389 66.83 106.857 64.9411 106.857C63.0521 106.857 61.5208 108.389 61.5208 110.278C61.5208 112.167 63.0521 113.698 64.9411 113.698Z" fill="black"/>
</svg>
