<svg width="161" height="161" viewBox="0 0 161 161" fill="none" xmlns="http://www.w3.org/2000/svg">
<path d="M120.716 53.6585C120.556 50.591 119.443 47.6499 117.531 45.2454C115.62 42.841 113.005 41.0931 110.053 40.2455C106.446 39.1112 102.599 38.9722 98.9201 39.8432C97.9804 36.3464 96.2355 33.1181 93.825 30.4164C91.4144 27.7148 88.4051 25.6147 85.0377 24.2841C79.3555 21.9302 73.1941 20.9646 67.0643 21.4674C60.9851 21.774 55.1909 24.139 50.6334 28.1739C47.0841 31.3413 44.2493 35.2277 42.3174 39.5749C40.6067 43.4743 39.8923 47.7378 40.2384 51.9819C35.2599 51.8145 30.3774 53.3788 26.4231 56.4081C23.2921 58.9717 20.8537 62.2792 19.3307 66.0281C17.8077 69.7771 17.2486 73.8481 17.7047 77.8689C18.1325 82.1057 19.8936 86.0976 22.7345 89.2699C23.9518 90.7888 25.485 92.0245 27.2279 92.8914C29.3523 93.8879 31.6121 94.5659 33.9343 94.9033C37.4063 95.305 40.9039 95.4396 44.3964 95.3057L67.0643 94.9033L89.8663 94.568C102.563 95.2746 115.295 95.0504 127.959 93.8973C132.526 92.2565 136.324 88.9837 138.622 84.7095C140.294 81.5253 141.116 77.9641 141.011 74.3694C140.905 70.7748 139.874 67.2681 138.019 64.1876C136.125 61.144 133.529 58.5993 130.448 56.7671C127.368 54.9349 123.892 53.8689 120.314 53.6585H120.716Z" stroke="black" stroke-width="6.70647" stroke-linecap="round" stroke-linejoin="round"/>
<path d="M32.9957 62.7031C30.3864 64.5794 28.5128 67.3068 27.6976 70.4156C26.9566 73.8856 27.2362 77.496 28.5024 80.8106" stroke="black" stroke-width="5.02986" stroke-linecap="round" stroke-linejoin="round"/>
<path d="M50.4324 98.8555C50.4324 101.404 50.4324 103.952 50.4324 106.501C50.474 107.217 50.3357 107.931 50.03 108.58C49.6145 109.089 49.0937 109.503 48.5033 109.792C47.9129 110.082 47.267 110.24 46.6097 110.256C40.7751 110.927 34.8734 110.256 29.1058 111.195C28.4825 111.2 27.884 111.44 27.4292 111.866C27.116 112.273 26.9295 112.762 26.8927 113.274C26.6585 114.965 26.6585 116.68 26.8927 118.371" stroke="black" stroke-width="5.02986" stroke-linecap="round" stroke-linejoin="round"/>
<path d="M28.9046 120.721C28.0956 120.391 27.208 120.305 26.3504 120.471C25.4928 120.638 24.7024 121.051 24.076 121.66C23.3348 122.181 22.7503 122.895 22.3858 123.724C22.0214 124.553 21.8908 125.466 22.0082 126.364C22.1257 127.262 22.4867 128.111 23.0521 128.819C23.6176 129.527 24.3659 130.066 25.2161 130.379C26.4246 130.665 27.6954 130.511 28.8013 129.946C29.9071 129.381 30.7758 128.441 31.2519 127.294C31.5441 126.711 31.7152 126.074 31.7548 125.423C31.7945 124.772 31.7018 124.12 31.4824 123.506C31.2631 122.892 30.9216 122.328 30.4785 121.85C30.0355 121.371 29.5001 120.987 28.9046 120.721Z" stroke="black" stroke-width="5.02986" stroke-linecap="round" stroke-linejoin="round"/>
<path d="M68.1377 95.0957C67.7353 103.68 67.7353 112.264 68.1377 120.849" stroke="black" stroke-width="5.02986" stroke-linecap="round" stroke-linejoin="round"/>
<path d="M67.7355 123.337C65.9152 123.624 64.2286 124.469 62.9077 125.754C61.5867 127.039 60.6961 128.701 60.3584 130.513C60.1302 131.379 60.0779 132.283 60.2046 133.169C60.3313 134.056 60.6344 134.909 61.0961 135.677C61.9613 137.003 63.308 137.941 64.8517 138.292C66.2559 138.631 67.7254 138.586 69.106 138.161C70.4866 137.736 71.7275 136.948 72.6983 135.878C73.7022 134.744 74.3717 133.354 74.6322 131.862C74.8927 130.37 74.734 128.835 74.1737 127.428C73.7046 126.13 72.818 125.024 71.6529 124.283C70.4879 123.543 69.1101 123.21 67.7355 123.337Z" stroke="black" stroke-width="5.02986" stroke-linecap="round" stroke-linejoin="round"/>
<path d="M89.7998 98.1211C89.7998 109.254 89.7998 120.454 90.2693 131.653C90.1659 132.932 90.4967 134.208 91.2082 135.275C92.6165 136.885 95.232 136.482 97.3111 135.879" stroke="black" stroke-width="5.02986" stroke-linecap="round" stroke-linejoin="round"/>
<path d="M103.481 131.111C102.233 131.752 101.174 132.708 100.409 133.884C99.6446 135.061 99.2008 136.416 99.1218 137.817C99.0647 139.164 99.4455 140.493 100.207 141.606C100.969 142.718 102.07 143.554 103.347 143.987C104.712 144.266 106.131 144.112 107.405 143.547C108.679 142.982 109.745 142.034 110.456 140.835C111.098 139.736 111.437 138.487 111.437 137.214C111.437 135.941 111.098 134.691 110.456 133.592C110.168 132.965 109.758 132.402 109.249 131.935C108.74 131.469 108.143 131.11 107.492 130.879C106.842 130.647 106.152 130.549 105.463 130.589C104.774 130.629 104.1 130.806 103.481 131.111Z" stroke="black" stroke-width="5.02986" stroke-linecap="round" stroke-linejoin="round"/>
<path d="M112.199 96.8379C112.602 99.7217 112.736 102.605 113.004 105.489C112.995 106.248 113.205 106.993 113.608 107.635C114.008 108.07 114.496 108.414 115.039 108.646C115.583 108.877 116.169 108.99 116.76 108.977C122.393 109.58 128.161 108.977 133.794 109.513C134.854 109.509 135.895 109.787 136.812 110.318C139.025 111.86 138.489 115.012 138.489 117.36" stroke="black" stroke-width="5.02986" stroke-linecap="round" stroke-linejoin="round"/>
<path d="M141.574 120.721C136.879 117.3 129.904 122.934 129.837 128.768C129.801 130.39 130.301 131.979 131.258 133.288C132.216 134.597 133.579 135.555 135.136 136.011C136.846 136.249 138.588 135.935 140.108 135.115C141.627 134.295 142.846 133.011 143.586 131.451C144.314 130.138 144.696 128.661 144.696 127.159C144.696 125.657 144.314 124.18 143.586 122.867C143.082 122.011 142.395 121.278 141.574 120.721Z" stroke="black" stroke-width="5.02986" stroke-linecap="round" stroke-linejoin="round"/>
</svg>
