<svg width="161" height="161" viewBox="0 0 161 161" fill="none" xmlns="http://www.w3.org/2000/svg">
<path d="M32.3862 42.3192C30.106 43.5264 25.6797 44.7336 25.6797 47.8186C25.6797 50.9035 29.5695 52.5131 31.9168 53.8544C43.7872 60.5609 55.5236 67.6697 67.327 74.5774L74.0334 78.333C75.3747 79.1378 76.8501 80.4791 78.4597 80.2108C80.3852 79.6006 82.2142 78.72 83.8919 77.5953C87.4464 75.6504 90.5984 73.5043 94.287 71.3583L127.819 50.1658C129.228 49.294 130.703 48.2209 130.904 46.6114C131.106 45.0018 129.094 42.9228 127.216 41.7827L92.275 20.9927C88.8885 18.5088 84.8635 17.0431 80.6728 16.7676C76.9903 17.1788 73.4659 18.4918 70.4119 20.5903L43.586 36.1493" stroke="black" stroke-width="6.70647" stroke-linecap="round" stroke-linejoin="round"/>
<path d="M79.063 80.2168C79.063 85.2467 79.063 90.1424 79.063 95.1052V111.335V143.794" stroke="black" stroke-width="6.70647" stroke-linecap="round" stroke-linejoin="round"/>
<path d="M25.6122 47.8892C24.8745 67.1367 24.5392 86.3843 24.9415 105.699C24.8465 108.428 25.2325 111.152 26.0817 113.747C27.6912 117.704 32.7881 119.984 35.9402 122.264C39.0922 124.544 44.5915 127.897 49.3531 130.513C54.1147 133.128 59.4128 136.079 64.5768 138.561C69.2501 141.73 74.648 143.668 80.27 144.194C84.9395 142.985 89.3335 140.89 93.2135 138.024C97.6397 135.476 102.133 132.927 106.626 130.312C111.12 127.696 116.418 124.276 121.247 121.191L128.288 116.563C130.553 115.439 132.492 113.753 133.922 111.668C134.642 109.982 135.095 108.195 135.263 106.37C135.99 98.6351 136.214 90.8616 135.934 83.0982C135.934 75.3186 135.263 67.405 135.934 59.6926C136.27 56.841 136.27 53.9598 135.934 51.1083C135.671 49.4863 135.031 47.949 134.064 46.6207C133.097 45.2925 131.83 44.2107 130.367 43.4629" stroke="black" stroke-width="6.70647" stroke-linecap="round" stroke-linejoin="round"/>
<path d="M37.0804 76.248L37.8182 106.025" stroke="black" stroke-width="6.70647" stroke-linecap="round" stroke-linejoin="round"/>
</svg>
