<svg width="47" height="47" viewBox="0 0 47 47" fill="none" xmlns="http://www.w3.org/2000/svg">
<path fill-rule="evenodd" clip-rule="evenodd" d="M13.5627 19.6507L9.6888 19.6515L9.68964 23.5254L9.69091 29.3361L9.69134 31.2731C7.55187 31.2735 5.81786 33.0083 5.81833 35.1478L5.81875 37.0847C5.81922 39.2242 7.55398 40.9582 9.69345 40.9577L36.8105 40.9518C38.9499 40.9513 40.6839 39.2165 40.6835 37.0771L40.683 35.1401C40.6826 33.0007 38.9478 31.2667 36.8083 31.2671L36.8079 29.3302L36.8066 23.5194L36.8058 19.6456L32.9319 19.6464L32.9328 23.5203L32.9341 29.3311L32.9345 31.268L29.0606 31.2688L29.0602 29.3319L29.0589 23.5211L29.0581 19.6473L25.1842 19.6481L25.1851 23.522L25.1863 29.3328L25.1868 31.2697L21.3129 31.2705L21.3125 29.3336L21.3112 23.5228L21.3104 19.649L17.4365 19.6498L17.4374 23.5237L17.4386 29.3344L17.4391 31.2714L13.5652 31.2722L13.5648 29.3353L13.5635 23.5245L13.5627 19.6507Z" fill="#B3A9FF"/>
<path d="M5.81389 14.6618C5.81353 13.0114 6.85876 11.5421 8.41792 11.0011L21.9754 6.29714C22.7973 6.01195 23.6914 6.01175 24.5134 6.29658L38.073 10.9946C39.6323 11.5349 40.6782 13.0038 40.6786 14.6541L40.6788 15.771C40.6793 17.9105 38.9453 19.6453 36.8058 19.6457L9.68883 19.6517C7.54936 19.6521 5.8146 17.9181 5.81413 15.7787L5.81389 14.6618Z" fill="black"/>
</svg>
