<svg width="49" height="49" viewBox="0 0 49 49" fill="none" xmlns="http://www.w3.org/2000/svg">
<path d="M44.0054 24.0157C44.0078 35.0614 35.0554 44.0176 24.0097 44.02C12.964 44.0225 4.00776 35.0701 4.00535 24.0244C4.00293 12.9787 12.9553 4.02246 24.001 4.02004C35.0467 4.01763 44.0029 12.97 44.0054 24.0157Z" fill="#CCC5FF"/>
<path fill-rule="evenodd" clip-rule="evenodd" d="M22.0024 10.0202C22.0021 8.9156 22.8974 8.01998 24.002 8.01974C25.1065 8.01949 26.0022 8.91473 26.0024 10.0193L26.0028 12.0193C29.3165 12.0186 32.0034 14.7043 32.0041 18.018C32.0044 19.1226 31.1091 20.0182 30.0046 20.0184C28.9 20.0187 28.0044 19.1234 28.0041 18.0189C28.0039 16.9143 27.1083 16.0191 26.0037 16.0193L22.0037 16.0202C20.8991 16.0204 20.0039 16.916 20.0041 18.0206L20.0044 19.1376C20.0046 19.9984 20.5556 20.7626 21.3723 21.0346L27.9026 23.2098C30.3529 24.026 32.006 26.3184 32.0065 28.901L32.0068 30.018C32.0075 33.3317 29.3218 36.0186 26.0081 36.0193L26.0085 38.0193C26.0088 39.1239 25.1135 40.0195 24.0089 40.0197C22.9044 40.02 22.0088 39.1247 22.0085 38.0202L22.0081 36.0202C18.6944 36.0209 16.0075 33.3352 16.0068 30.0215C16.0065 28.9169 16.9018 28.0213 18.0063 28.021C19.1109 28.0208 20.0065 28.916 20.0068 30.0206C20.007 31.1252 20.9026 32.0204 22.0072 32.0202L26.0072 32.0193C27.1118 32.0191 28.007 31.1234 28.0068 30.0189L28.0065 28.9019C28.0063 28.041 27.4553 27.2769 26.6386 27.0048L20.1083 24.8297C17.658 24.0135 16.0049 21.721 16.0044 19.1384L16.0041 18.0215C16.0034 14.7078 18.6891 12.0209 22.0028 12.0202L22.0024 10.0202Z" fill="black"/>
</svg>
