<svg width="46" height="47" viewBox="0 0 46 47" fill="none" xmlns="http://www.w3.org/2000/svg">
<path d="M11.4935 13.8421C11.4931 11.697 11.4928 10.6245 11.9101 9.80508C12.2772 9.08431 12.863 8.49824 13.5836 8.13087C14.4028 7.71323 15.4753 7.713 17.6204 7.71253L36.0052 7.70851C38.1503 7.70804 39.2228 7.70781 40.0422 8.12509C40.763 8.49214 41.3491 9.07795 41.7164 9.79856C42.1341 10.6178 42.1343 11.6903 42.1348 13.8354L42.1371 24.5599C42.1376 26.7049 42.1378 27.7775 41.7205 28.5969C41.3535 29.3177 40.7677 29.9037 40.0471 30.2711C39.2278 30.6887 38.1553 30.689 36.0102 30.6894L17.6255 30.6935C15.4804 30.6939 14.4078 30.6942 13.5884 30.2769C12.8677 29.9098 12.2816 29.324 11.9142 28.6034C11.4966 27.7842 11.4963 26.7116 11.4959 24.5666L11.4935 13.8421Z" fill="#B3A9FF"/>
<path fill-rule="evenodd" clip-rule="evenodd" d="M4.25142 17.4662C3.98231 17.9946 3.88685 18.6284 3.85311 19.5871C3.83489 20.105 3.82577 20.3639 3.9274 20.5761C4.0148 20.7586 4.16813 20.9174 4.34743 21.0111C4.55594 21.1201 4.82666 21.12 5.36811 21.1199L32.9426 21.1139C33.4841 21.1138 33.7548 21.1137 33.9633 21.0046C34.1425 20.9108 34.2958 20.752 34.3831 20.5695C34.4846 20.3572 34.4754 20.0983 34.457 19.5804C34.4228 18.6217 34.3271 17.988 34.0577 17.4597C33.6904 16.7391 33.1043 16.1533 32.3835 15.7862C31.5641 15.3689 30.4916 15.3692 28.3465 15.3696L9.96174 15.3737C7.81666 15.3741 6.74411 15.3744 5.92489 15.792C5.20428 16.1594 4.61847 16.7454 4.25142 17.4662ZM34.4772 26.4758C34.477 25.9395 34.477 25.6713 34.3726 25.4665C34.2807 25.2864 34.1342 25.1399 33.954 25.0482C33.7492 24.9438 33.481 24.9439 32.9448 24.944L5.36765 24.9501C4.83138 24.9502 4.56324 24.9502 4.35844 25.0546C4.17828 25.1465 4.03183 25.293 3.94007 25.4732C3.83575 25.678 3.83581 25.9462 3.83592 26.4824L3.83718 32.2277C3.83765 34.3728 3.83788 35.4453 4.25552 36.2645C4.62289 36.9851 5.20896 37.571 5.92973 37.938C6.74914 38.3553 7.82168 38.3551 9.96677 38.3546L28.3515 38.3506C30.4966 38.3501 31.5691 38.3499 32.3884 37.9322C33.109 37.5649 33.6948 36.9788 34.0618 36.258C34.4791 35.4386 34.4789 34.3661 34.4784 32.221L34.4772 26.4758Z" fill="black"/>
</svg>
