<svg width="13" height="14" viewBox="0 0 13 14" fill="none" xmlns="http://www.w3.org/2000/svg">
<path fill-rule="evenodd" clip-rule="evenodd" d="M6.5 0.0166016C3.175 0.0166016 0.5 2.98662 0.5 6.67833C0.5 9.62059 2.225 12.1187 4.6 13.007C4.9 13.0625 5 12.8682 5 12.6739C5 12.5073 5 12.091 5 11.5358C3.325 11.9522 2.975 10.6476 2.975 10.6476C2.7 9.87041 2.3 9.67611 2.3 9.67611C1.75 9.25975 2.35 9.25975 2.35 9.25975C2.95 9.31527 3.275 9.95368 3.275 9.95368C3.8 10.9807 4.675 10.6754 5.025 10.5088C5.075 10.0647 5.225 9.78714 5.4 9.6206C4.075 9.45405 2.675 8.87115 2.675 6.31749C2.675 5.5958 2.9 4.98514 3.3 4.54103C3.25 4.37448 3.025 3.70831 3.35 2.76456C3.35 2.76456 3.85 2.59802 5 3.4585C5.475 3.31971 6 3.23644 6.5 3.23644C7 3.23644 7.525 3.31971 8 3.4585C9.15 2.59802 9.65 2.76456 9.65 2.76456C9.975 3.68055 9.775 4.34673 9.7 4.54103C10.075 5.0129 10.325 5.5958 10.325 6.31749C10.325 8.87115 8.925 9.42629 7.575 9.59284C7.8 9.78714 7.975 10.2035 7.975 10.8142C7.975 11.7024 7.975 12.4241 7.975 12.6461C7.975 12.8127 8.075 13.0347 8.4 12.9792C10.775 12.1187 12.5 9.62059 12.5 6.67833C12.5 2.98662 9.825 0.0166016 6.5 0.0166016Z" fill="white"/>
</svg>
