<svg width="97" height="96" viewBox="0 0 97 96" fill="none" xmlns="http://www.w3.org/2000/svg">
<path d="M72.5003 28.64C72.2603 28.6 71.9803 28.6 71.7403 28.64C66.2203 28.44 61.8203 23.92 61.8203 18.32C61.8203 12.6 66.4203 8 72.1403 8C77.8603 8 82.4603 12.64 82.4603 18.32C82.4203 23.92 78.0203 28.44 72.5003 28.64Z" stroke="white" stroke-width="3" stroke-linecap="round" stroke-linejoin="round"/>
<path d="M68.3798 57.7597C73.8598 58.6797 79.8998 57.7197 84.1398 54.8797C89.7798 51.1197 89.7798 44.9597 84.1398 41.1997C79.8598 38.3597 73.7398 37.3996 68.2598 38.3596" stroke="white" stroke-width="3" stroke-linecap="round" stroke-linejoin="round"/>
<path d="M24.3799 28.64C24.6199 28.6 24.8999 28.6 25.1399 28.64C30.6599 28.44 35.0599 23.92 35.0599 18.32C35.0599 12.6 30.4599 8 24.7399 8C19.0199 8 14.4199 12.64 14.4199 18.32C14.4599 23.92 18.8599 28.44 24.3799 28.64Z" stroke="white" stroke-width="3" stroke-linecap="round" stroke-linejoin="round"/>
<path d="M28.4998 57.7597C23.0198 58.6797 16.9798 57.7197 12.7398 54.8797C7.09977 51.1197 7.09977 44.9597 12.7398 41.1997C17.0198 38.3597 23.1398 37.3996 28.6198 38.3596" stroke="white" stroke-width="3" stroke-linecap="round" stroke-linejoin="round"/>
<path d="M48.5003 58.5199C48.2603 58.4799 47.9803 58.4799 47.7403 58.5199C42.2203 58.3199 37.8203 53.7999 37.8203 48.1999C37.8203 42.4799 42.4203 37.8799 48.1403 37.8799C53.8603 37.8799 58.4603 42.5199 58.4603 48.1999C58.4203 53.7999 54.0203 58.3599 48.5003 58.5199Z" stroke="white" stroke-width="3" stroke-linecap="round" stroke-linejoin="round"/>
<path d="M36.8609 71.1195C31.2209 74.8795 31.2209 81.0394 36.8609 84.7994C43.2609 89.0794 53.7409 89.0794 60.1409 84.7994C65.7809 81.0394 65.7809 74.8795 60.1409 71.1195C53.7809 66.8795 43.2609 66.8795 36.8609 71.1195Z" stroke="white" stroke-width="3" stroke-linecap="round" stroke-linejoin="round"/>
</svg>
