<svg width="14" height="15" viewBox="0 0 14 15" fill="none" xmlns="http://www.w3.org/2000/svg">
<path d="M7 1.77787C8.7355 1.77787 8.94102 1.78487 9.62662 1.81854C10.0388 1.82397 10.4471 1.90548 10.8338 2.05953C11.1141 2.17597 11.3688 2.35434 11.5813 2.58317C11.7938 2.81199 11.9594 3.0862 12.0675 3.38813C12.2106 3.80448 12.2863 4.24417 12.2913 4.68807C12.3223 5.42637 12.3291 5.64769 12.3291 7.5166C12.3291 9.38551 12.3226 9.60684 12.2913 10.3451C12.2863 10.789 12.2106 11.2287 12.0675 11.6451C11.9594 11.947 11.7938 12.2212 11.5813 12.45C11.3688 12.6789 11.1141 12.8572 10.8338 12.9737C10.4471 13.1277 10.0388 13.2092 9.62662 13.2147C8.94133 13.248 8.73581 13.2553 7 13.2553C5.26419 13.2553 5.05867 13.2483 4.37338 13.2147C3.96117 13.2092 3.55287 13.1277 3.16624 12.9737C2.88586 12.8572 2.63123 12.6789 2.41874 12.45C2.20625 12.2212 2.04061 11.947 1.93248 11.6451C1.78943 11.2287 1.71373 10.789 1.70869 10.3451C1.67774 9.60684 1.67093 9.38551 1.67093 7.5166C1.67093 5.64769 1.67743 5.42637 1.70869 4.68807C1.71373 4.24417 1.78943 3.80448 1.93248 3.38813C2.04061 3.0862 2.20625 2.81199 2.41874 2.58317C2.63123 2.35434 2.88586 2.17597 3.16624 2.05953C3.55287 1.90548 3.96117 1.82397 4.37338 1.81854C5.05898 1.78521 5.2645 1.77787 7 1.77787ZM7 0.516602C5.23571 0.516602 5.01348 0.524601 4.32014 0.5586C3.78066 0.570155 3.2469 0.680154 2.74157 0.883917C2.30808 1.0598 1.91545 1.33542 1.59107 1.69155C1.26007 2.04099 1.0039 2.46404 0.840476 2.93115C0.651258 3.47533 0.549112 4.05012 0.538381 4.63107C0.507429 5.37704 0.5 5.61636 0.5 7.51627C0.5 9.41618 0.507429 9.6555 0.539 10.4021C0.549731 10.9831 0.651877 11.5579 0.841095 12.102C1.00434 12.5691 1.26029 12.9922 1.59107 13.3417C1.91563 13.6979 2.30848 13.9735 2.74219 14.1493C3.24752 14.353 3.78128 14.463 4.32076 14.4746C5.0141 14.5079 5.2354 14.5166 7.00062 14.5166C8.76583 14.5166 8.98714 14.5086 9.68048 14.4746C10.22 14.463 10.7537 14.353 11.259 14.1493C11.6907 13.9691 12.0827 13.6939 12.4099 13.3413C12.7372 12.9886 12.9925 12.5663 13.1595 12.1014C13.3487 11.5572 13.4509 10.9824 13.4616 10.4015C13.4926 9.6555 13.5 9.41618 13.5 7.51627C13.5 5.61636 13.4926 5.37704 13.461 4.63041C13.4503 4.04945 13.3481 3.47466 13.1589 2.93049C12.9957 2.46344 12.7397 2.04039 12.4089 1.69088C12.0844 1.33467 11.6915 1.05905 11.2578 0.883251C10.7525 0.679487 10.2187 0.569488 9.67924 0.557933C8.98652 0.524601 8.76429 0.516602 7 0.516602Z" fill="white"/>
<path d="M7 3.5166C6.30777 3.5166 5.63108 3.72187 5.05551 4.10646C4.47993 4.49104 4.03133 5.03767 3.76642 5.67721C3.50152 6.31675 3.4322 7.02048 3.56725 7.69942C3.7023 8.37835 4.03564 9.00199 4.52513 9.49147C5.01461 9.98096 5.63825 10.3143 6.31719 10.4493C6.99612 10.5844 7.69985 10.5151 8.33939 10.2502C8.97893 9.98527 9.52556 9.53667 9.91014 8.9611C10.2947 8.38552 10.5 7.70884 10.5 7.0166C10.5 6.08834 10.1313 5.19811 9.47487 4.54173C8.8185 3.88535 7.92826 3.5166 7 3.5166ZM7 9.28848C6.55066 9.28848 6.11142 9.15524 5.73781 8.9056C5.3642 8.65597 5.07301 8.30115 4.90105 7.88601C4.7291 7.47088 4.68411 7.01408 4.77177 6.57338C4.85943 6.13268 5.07581 5.72787 5.39354 5.41014C5.71127 5.09241 6.11608 4.87603 6.55678 4.78837C6.99748 4.70071 7.45428 4.7457 7.86941 4.91765C8.28455 5.08961 8.63937 5.3808 8.889 5.75441C9.13864 6.12802 9.27188 6.56726 9.27188 7.0166C9.27188 7.61914 9.03253 8.197 8.60647 8.62306C8.1804 9.04913 7.60254 9.28848 7 9.28848Z" fill="white"/>
<path d="M10.5 4.5166C11.0523 4.5166 11.5 4.06889 11.5 3.5166C11.5 2.96432 11.0523 2.5166 10.5 2.5166C9.94772 2.5166 9.5 2.96432 9.5 3.5166C9.5 4.06889 9.94772 4.5166 10.5 4.5166Z" fill="white"/>
</svg>
