<svg width="97" height="96" viewBox="0 0 97 96" fill="none" xmlns="http://www.w3.org/2000/svg">
<path d="M84.1399 44.4802C84.1399 64.0402 69.9399 82.3602 50.5399 87.7202C49.2199 88.0802 47.7798 88.0802 46.4598 87.7202C27.0598 82.3602 12.8599 64.0402 12.8599 44.4802V26.9201C12.8599 23.6401 15.3399 19.9201 18.4199 18.6801L40.6998 9.56027C45.6998 7.52027 51.3398 7.52027 56.3398 9.56027L78.6199 18.6801C81.6599 19.9201 84.1799 23.6401 84.1799 26.9201L84.1399 44.4802Z" stroke="white" stroke-width="1.5" stroke-linecap="round" stroke-linejoin="round"/>
<path d="M48.5 50C52.9183 50 56.5 46.4183 56.5 42C56.5 37.5817 52.9183 34 48.5 34C44.0817 34 40.5 37.5817 40.5 42C40.5 46.4183 44.0817 50 48.5 50Z" stroke="white" stroke-width="1.5" stroke-miterlimit="10" stroke-linecap="round" stroke-linejoin="round"/>
<path d="M48.5 50V62" stroke="white" stroke-width="1.5" stroke-miterlimit="10" stroke-linecap="round" stroke-linejoin="round"/>
</svg>
