<svg width="97" height="96" viewBox="0 0 97 96" fill="none" xmlns="http://www.w3.org/2000/svg">
<path d="M38.5 54.9999C38.5 58.8799 41.5001 61.9999 45.1801 61.9999H52.7C55.9 61.9999 58.5 59.2799 58.5 55.8799C58.5 52.2399 56.9 50.92 54.54 50.08L42.5 45.8799C40.14 45.0399 38.54 43.76 38.54 40.08C38.54 36.72 41.14 33.96 44.34 33.96H51.86C55.54 33.96 58.54 37.08 58.54 40.96" stroke="white" stroke-width="1.5" stroke-linecap="round" stroke-linejoin="round"/>
<path d="M48.5 30V66" stroke="white" stroke-width="1.5" stroke-linecap="round" stroke-linejoin="round"/>
<path d="M88.5 48C88.5 70.08 70.58 88 48.5 88C26.42 88 8.5 70.08 8.5 48C8.5 25.92 26.42 8 48.5 8" stroke="white" stroke-width="1.5" stroke-linecap="round" stroke-linejoin="round"/>
<path d="M68.5 12V28H84.5" stroke="white" stroke-width="1.5" stroke-linecap="round" stroke-linejoin="round"/>
<path d="M88.5 8L68.5 28" stroke="white" stroke-width="1.5" stroke-linecap="round" stroke-linejoin="round"/>
</svg>
