<svg width="12" height="10" viewBox="0 0 12 10" fill="none" xmlns="http://www.w3.org/2000/svg">
<path d="M11.5 1.06042C11.0875 1.24598 10.6521 1.36196 10.1938 1.43155C10.6521 1.1532 11.0188 0.712478 11.1792 0.178973C10.7437 0.434127 10.2625 0.619694 9.73542 0.735674C9.32292 0.294952 8.72708 0.0166016 8.08542 0.0166016C6.84792 0.0166016 5.83958 1.03722 5.83958 2.2898C5.83958 2.47536 5.8625 2.63774 5.90833 2.80011C4.05208 2.70732 2.37917 1.80268 1.25625 0.410931C1.07292 0.75887 0.958333 1.13 0.958333 1.54753C0.958333 2.33619 1.34792 3.03207 1.96667 3.44959C1.6 3.42639 1.25625 3.33361 0.935417 3.17124V3.19444C0.935417 4.30784 1.71458 5.23567 2.74583 5.44444C2.5625 5.49083 2.35625 5.51402 2.15 5.51402C2.0125 5.51402 1.85208 5.49083 1.71458 5.46763C2.0125 6.37227 2.8375 7.04495 3.82292 7.04495C3.04375 7.64804 2.08125 8.01918 1.02708 8.01918C0.84375 8.01918 0.660417 8.01918 0.5 7.99598C1.50833 8.64547 2.67708 9.0166 3.96042 9.0166C8.10833 9.0166 10.3771 5.53722 10.3771 2.52176C10.3771 2.42897 10.3771 2.31299 10.3771 2.22021C10.8125 1.91866 11.2021 1.52433 11.5 1.06042Z" fill="white"/>
</svg>
