<svg width="670" height="667" viewBox="0 0 670 667" fill="none" xmlns="http://www.w3.org/2000/svg">
<g opacity="0.25">
<path d="M103.307 505.691H68.6187C119.767 582.827 200.86 632.857 292.275 643.594V615.107C217.9 605.448 149.226 565.7 103.307 505.691Z" fill="#FC3D3D"/>
<path d="M68.4214 294.564H47.6019L48.0835 291.339C56.4465 235.341 81.2376 183.554 119.777 141.576C158.099 99.8339 207.246 70.7489 261.904 57.4661L263.754 57.016L264.859 58.5681C271.828 68.3624 283.129 74.2099 295.088 74.2099C315.548 74.2099 332.193 57.5649 332.193 37.1049C332.193 16.6449 315.548 0 295.088 0C278.335 0 263.61 11.3162 259.282 27.5192L258.847 29.1427L257.212 29.5283C131.915 59.1088 36.3543 164.638 19.4184 292.124C18.0763 302.244 17.2213 312.56 16.8755 322.834H66.0747C66.1118 315.16 66.6086 304.946 68.4214 294.564Z" fill="url(#paint0_linear_1454_225)"/>
<path d="M566.687 161.243H601.377C550.228 84.107 469.134 34.0789 377.721 23.3418V51.8299C452.095 61.4856 520.769 101.234 566.687 161.243Z" fill="url(#paint1_linear_1454_225)"/>
<path d="M601.579 372.351H622.397L621.917 375.576C613.554 431.572 588.761 483.358 550.224 525.338C511.903 567.078 462.754 596.164 408.097 609.448L406.248 609.898L405.144 608.347C398.173 598.551 386.873 592.703 374.912 592.703C354.453 592.703 337.807 609.349 337.807 629.81C337.807 650.269 354.453 666.915 374.912 666.915C391.665 666.915 406.39 655.599 410.721 639.395L411.155 637.77L412.791 637.383C538.084 607.806 633.647 502.277 650.582 374.791C651.924 364.685 652.778 354.368 653.126 344.081H603.926C603.887 351.761 603.39 361.976 601.579 372.351Z" fill="url(#paint2_linear_1454_225)"/>
<path d="M119.614 325.539C119.677 310.944 123.578 292.121 123.774 291.185C135.816 232.666 172.489 182.013 224.497 151.963V119.919C156.224 153.442 107.867 217.541 94.7573 292.238C94.7353 292.394 91.4129 314.509 91.3059 325.67C91.2222 328.3 91.1646 330.873 91.1646 333.46C91.1646 367.878 98.4228 401.115 112.743 432.286H144.333C128.029 401.974 119.434 367.913 119.434 333.46C119.434 330.806 119.517 328.169 119.614 325.539Z" fill="#A5A6A5"/>
<path d="M641.071 241.942L639.491 241.588L639.005 240.043C636.414 231.8 633.499 223.689 630.34 215.938C625.863 204.962 620.72 194.157 615.041 183.797H389.049V104.733C379.652 102.056 370.166 99.9616 360.779 98.4932V183.797L292.278 183.798V98.4932C282.892 99.9616 273.405 102.056 264.009 104.733V186.395L261.919 186.949C220.629 197.902 191.793 235.374 191.793 278.077C191.793 282.419 192.114 286.887 192.746 291.358L193.199 294.563H146.912C144.681 303.748 143.885 314.468 143.646 322.833H451.087C449.171 320.854 447.255 319.041 445.301 317.361C428.199 302.66 406.404 294.563 383.931 294.563H222.124L221.635 292.36C220.592 287.645 220.063 282.84 220.063 278.077C220.063 241.68 249.675 212.068 286.071 212.068L597.769 212.067L598.527 213.688C603.341 223.992 607.592 234.784 611.163 245.764L611.772 247.639L610.216 248.851C601.107 255.944 595.884 266.598 595.884 278.077C595.884 298.511 612.508 315.135 632.942 315.135C653.376 315.135 670 298.511 670 278.077C670 260.896 657.833 245.7 641.071 241.942Z" fill="#737373"/>
<path d="M377.722 568.418C387.106 566.952 396.591 564.858 405.992 562.179V480.518L408.08 479.963C449.371 469.012 478.209 431.537 478.209 388.835C478.209 384.488 477.888 380.022 477.254 375.557L476.798 372.351H523.087C525.321 363.167 526.117 352.444 526.356 344.081H218.915C220.826 346.054 222.744 347.869 224.703 349.554C241.8 364.254 263.594 372.351 286.068 372.351H447.875L448.364 374.552C449.409 379.267 449.939 384.073 449.939 388.835C449.939 425.232 420.327 454.844 383.927 454.844H72.2296L71.4721 453.222C66.6525 442.902 62.4024 432.11 58.8371 421.151L58.2278 419.274L59.784 418.063C68.8921 410.968 74.1166 400.316 74.1166 388.835C74.1166 368.401 57.4922 351.777 37.0583 351.777C16.6244 351.777 0 368.401 0 388.835C0 406.017 12.1657 421.214 28.9286 424.971L30.5095 425.325L30.9953 426.871C33.5781 435.099 36.4943 443.207 39.6602 450.972C44.1367 461.95 49.2802 472.756 54.9589 483.114H280.951V562.179C290.351 564.858 299.837 566.952 309.219 568.418V483.114H377.722V568.418Z" fill="#737373"/>
<path d="M550.387 341.379C550.324 355.972 546.424 374.8 546.229 375.731C534.188 434.249 497.514 484.902 445.506 514.953V546.997C513.776 513.476 562.134 449.378 575.246 374.679C575.27 374.523 578.589 352.407 578.698 341.247C578.781 338.615 578.838 336.043 578.838 333.456C578.838 299.037 571.579 265.798 557.26 234.631H525.672C541.975 264.941 550.568 299.003 550.568 333.456C550.568 336.11 550.486 338.746 550.387 341.379Z" fill="#A5A6A5"/>
</g>
<defs>
<linearGradient id="paint0_linear_1454_225" x1="16.8755" y1="0" x2="16.8755" y2="323.21" gradientUnits="userSpaceOnUse">
<stop stop-color="#F5515F"/>
<stop offset="1" stop-color="#9F041B"/>
</linearGradient>
<linearGradient id="paint1_linear_1454_225" x1="377.721" y1="23.3418" x2="377.721" y2="161.057" gradientUnits="userSpaceOnUse">
<stop stop-color="#F5515F"/>
<stop offset="1" stop-color="#9F041B"/>
</linearGradient>
<linearGradient id="paint2_linear_1454_225" x1="337.807" y1="344.081" x2="337.807" y2="667.291" gradientUnits="userSpaceOnUse">
<stop stop-color="#F5515F"/>
<stop offset="1" stop-color="#9F041B"/>
</linearGradient>
</defs>
</svg>
