<svg width="162" height="49" viewBox="0 0 162 49" fill="none" xmlns="http://www.w3.org/2000/svg">
<path d="M7.47751 36.9658H4.9668C8.66884 42.5488 14.5383 46.1699 21.1548 46.9471V44.8852C15.7717 44.1862 10.8011 41.3092 7.47751 36.9658Z" fill="#FC3D3D"/>
<path d="M4.95204 21.6846H3.44514L3.48001 21.4512C4.08531 17.3981 5.87967 13.6498 8.66909 10.6114C11.4428 7.59016 15 5.485 18.9562 4.52361L19.0901 4.49103L19.17 4.60337C19.6744 5.31227 20.4924 5.73551 21.358 5.73551C22.8389 5.73551 24.0436 4.53076 24.0436 3.04988C24.0436 1.56901 22.8389 0.364258 21.358 0.364258C20.1454 0.364258 19.0796 1.18332 18.7664 2.35608L18.7349 2.47358L18.6166 2.50149C9.54764 4.64251 2.63105 12.2806 1.40525 21.508C1.3081 22.2404 1.24622 22.9871 1.22119 23.7307H4.78219C4.78487 23.1753 4.82083 22.436 4.95204 21.6846Z" fill="url(#paint0_linear_841_132)"/>
<path d="M41.0166 12.0339H43.5274C39.8253 6.45087 33.9558 2.82988 27.3394 2.05273V4.11468C32.7225 4.81355 37.6931 7.69048 41.0166 12.0339Z" fill="url(#paint1_linear_841_132)"/>
<path d="M43.5418 27.3152H45.0486L45.0138 27.5486C44.4085 31.6016 42.6141 35.3498 39.8248 38.3883C37.0511 41.4094 33.4938 43.5146 29.5378 44.4761L29.4039 44.5086L29.324 44.3964C28.8194 43.6874 28.0016 43.2641 27.1358 43.2641C25.655 43.2641 24.4502 44.4689 24.4502 45.9499C24.4502 47.4307 25.655 48.6355 27.1358 48.6355C28.3484 48.6355 29.4142 47.8165 29.7277 46.6436L29.7591 46.526L29.8775 46.498C38.9461 44.3573 45.8629 36.7192 47.0886 27.4918C47.1857 26.7604 47.2475 26.0136 47.2728 25.269H43.7116C43.7089 25.8249 43.6729 26.5643 43.5418 27.3152Z" fill="url(#paint2_linear_841_132)"/>
<path d="M8.65731 23.9265C8.66188 22.8702 8.94417 21.5078 8.95837 21.4401C9.82997 17.2045 12.4843 13.5382 16.2486 11.3632V9.04395C11.3071 11.4703 7.80706 16.1097 6.85818 21.5162C6.8566 21.5276 6.61612 23.1282 6.60838 23.9361C6.60232 24.1264 6.59814 24.3126 6.59814 24.4999C6.59814 26.991 7.12349 29.3967 8.15998 31.6528H10.4464C9.26639 29.4589 8.6443 26.9936 8.6443 24.4999C8.6443 24.3077 8.65026 24.1169 8.65731 23.9265Z" fill="#A5A6A5"/>
<path d="M46.4002 17.8759L46.2858 17.8503L46.2506 17.7384C46.0631 17.1418 45.8521 16.5547 45.6235 15.9937C45.2995 15.1993 44.9272 14.4172 44.5162 13.6674H28.1591V7.94481C27.4789 7.75102 26.7923 7.59944 26.1129 7.49316V13.6674L21.1549 13.6675V7.49316C20.4755 7.59944 19.7888 7.75102 19.1087 7.94481V13.8554L18.9574 13.8955C15.969 14.6883 13.8818 17.4005 13.8818 20.4913C13.8818 20.8056 13.905 21.129 13.9508 21.4526L13.9836 21.6845H10.6334C10.4719 22.3493 10.4143 23.1253 10.397 23.7307H32.6493C32.5106 23.5875 32.372 23.4562 32.2305 23.3347C30.9927 22.2706 29.4152 21.6845 27.7886 21.6845H16.0771L16.0418 21.5251C15.9663 21.1838 15.9279 20.8361 15.9279 20.4913C15.9279 17.8569 18.0712 15.7136 20.7056 15.7136L43.266 15.7135L43.3209 15.8308C43.6693 16.5767 43.977 17.3578 44.2355 18.1525L44.2796 18.2882L44.1669 18.3759C43.5076 18.8893 43.1296 19.6604 43.1296 20.4913C43.1296 21.9703 44.3328 23.1736 45.8118 23.1736C47.2908 23.1736 48.4941 21.9703 48.4941 20.4913C48.4941 19.2477 47.6134 18.1479 46.4002 17.8759Z" fill="#737373"/>
<path d="M27.3392 41.5064C28.0184 41.4003 28.7049 41.2487 29.3853 41.0548V35.1442L29.5365 35.1041C32.5251 34.3115 34.6124 31.599 34.6124 28.5083C34.6124 28.1937 34.5891 27.8704 34.5432 27.5472L34.5103 27.3152H37.8606C38.0223 26.6505 38.0799 25.8743 38.0972 25.269H15.8449C15.9832 25.4119 16.122 25.5432 16.2638 25.6652C17.5013 26.7292 19.0787 27.3152 20.7054 27.3152H32.4168L32.4522 27.4745C32.5279 27.8158 32.5662 28.1637 32.5662 28.5083C32.5662 31.1427 30.4229 33.286 27.7883 33.286H5.22792L5.17309 33.1686C4.82425 32.4216 4.51663 31.6405 4.25858 30.8473L4.21448 30.7114L4.32712 30.6238C4.98636 30.1103 5.3645 29.3393 5.3645 28.5083C5.3645 27.0293 4.16124 25.8261 2.68225 25.8261C1.20326 25.8261 0 27.0293 0 28.5083C0 29.7519 0.880541 30.8519 2.09383 31.1238L2.20826 31.1494L2.24342 31.2613C2.43035 31.8569 2.64142 32.4437 2.87057 33.0057C3.19458 33.8003 3.56686 34.5824 3.97788 35.3321H20.335V41.0548C21.0154 41.2487 21.7019 41.4003 22.381 41.5064V35.3321H27.3392V41.5064Z" fill="#737373"/>
<path d="M39.8363 25.073C39.8318 26.1292 39.5495 27.492 39.5354 27.5594C38.6639 31.7949 36.0094 35.4611 32.2451 37.6362V39.9555C37.1865 37.5293 40.6866 32.8899 41.6356 27.4833C41.6374 27.472 41.8775 25.8712 41.8855 25.0635C41.8914 24.8729 41.8956 24.6868 41.8956 24.4996C41.8956 22.0083 41.3702 19.6025 40.3338 17.3467H38.0475C39.2275 19.5405 39.8495 22.0058 39.8495 24.4996C39.8495 24.6917 39.8435 24.8825 39.8363 25.073Z" fill="#A5A6A5"/>
<path d="M59.9214 22.6943C59.9214 22.2149 60.0072 21.8094 60.1788 21.478C60.3487 21.1466 60.5624 20.8774 60.8198 20.6705C61.0755 20.4636 61.3531 20.3138 61.6525 20.2213C61.9537 20.1288 62.2329 20.0825 62.4903 20.0825H67.9436V21.6849H62.4903C62.1875 21.6849 61.9503 21.7775 61.7787 21.9625C61.6088 22.1476 61.5238 22.3915 61.5238 22.6943C61.5238 23.0022 61.6088 23.2453 61.7787 23.4236C61.9503 23.6037 62.1875 23.6937 62.4903 23.6937H66.1746H66.1873C66.3605 23.697 66.5439 23.7206 66.7374 23.7643C66.9292 23.8064 67.121 23.8728 67.3127 23.9637C67.5028 24.0545 67.6845 24.1689 67.8578 24.3069C68.0294 24.4431 68.1825 24.608 68.3171 24.8015C68.45 24.9949 68.556 25.217 68.6351 25.4677C68.7124 25.7184 68.7511 26.0018 68.7511 26.3181C68.7511 26.6344 68.7108 26.9187 68.63 27.1711C68.5509 27.4234 68.4458 27.6463 68.3146 27.8398C68.1817 28.0316 68.0269 28.1956 67.8502 28.3319C67.6736 28.4681 67.4911 28.5792 67.3026 28.665C67.1142 28.7508 66.9224 28.8147 66.7273 28.8568C66.5321 28.8971 66.3479 28.9173 66.1746 28.9173H59.9971V27.3149H66.1746C66.4842 27.3149 66.7239 27.2249 66.8938 27.0449C67.0638 26.8632 67.1487 26.6209 67.1487 26.3181C67.1487 26.1701 67.126 26.0346 67.0806 25.9118C67.0352 25.7873 66.9704 25.6805 66.8863 25.5913C66.8022 25.5005 66.6995 25.4307 66.5784 25.3819C66.4573 25.3314 66.3227 25.3062 66.1746 25.3062H62.4903C62.2329 25.3062 61.9537 25.2599 61.6525 25.1674C61.3531 25.0749 61.0755 24.926 60.8198 24.7207C60.5624 24.5155 60.3487 24.2471 60.1788 23.9157C60.0072 23.5826 59.9214 23.1755 59.9214 22.6943ZM73.0689 21.6849H69.5334V20.0825H78.2017V21.6849H74.6713V28.9173H73.0689V21.6849ZM80.7328 28.9173H79.1303V24.5012C79.1303 23.8552 79.2414 23.2613 79.4634 22.7196C79.6855 22.1779 79.9934 21.7119 80.387 21.3216C80.7807 20.9313 81.2467 20.6268 81.7851 20.4081C82.3234 20.191 82.9114 20.0825 83.549 20.0825H87.1576C87.2686 20.0825 87.3738 20.1027 87.473 20.1431C87.5706 20.1851 87.6564 20.2432 87.7304 20.3172C87.8045 20.3912 87.8625 20.477 87.9046 20.5746C87.9449 20.6739 87.9651 20.779 87.9651 20.89V28.9173H86.3627V26.7496H80.7328V28.9173ZM80.7328 24.5012V25.1472H86.3627V21.6849H83.549C83.4985 21.6849 83.3942 21.6917 83.2361 21.7051C83.0779 21.7203 82.8954 21.7564 82.6885 21.8136C82.4815 21.8708 82.2628 21.9592 82.0324 22.0786C81.8019 22.1981 81.5899 22.3621 81.3964 22.5707C81.2046 22.781 81.0457 23.0434 80.9195 23.358C80.795 23.6709 80.7328 24.052 80.7328 24.5012ZM89.936 26.6689V22.331C89.936 22.1829 89.9536 22.0239 89.989 21.854C90.0226 21.6841 90.0765 21.5159 90.1505 21.3493C90.2245 21.1828 90.3212 21.0238 90.4407 20.8724C90.5601 20.7193 90.7031 20.5847 90.8697 20.4686C91.0362 20.3509 91.228 20.2575 91.445 20.1885C91.6621 20.1178 91.9085 20.0825 92.1844 20.0825H97.9633V21.6849H92.1844C91.9758 21.6849 91.816 21.7405 91.705 21.8515C91.5939 21.9625 91.5384 22.1266 91.5384 22.3436V26.6689C91.5384 26.8741 91.5948 27.0331 91.7075 27.1458C91.8202 27.2585 91.9792 27.3149 92.1844 27.3149H97.9633V28.9173H92.1844C92.0364 28.9173 91.8774 28.8997 91.7075 28.8643C91.5359 28.829 91.3677 28.7752 91.2028 28.7028C91.0362 28.6288 90.8764 28.5329 90.7233 28.4151C90.5719 28.2974 90.4373 28.1561 90.3196 27.9912C90.2035 27.8246 90.1101 27.6312 90.0394 27.4108C89.9705 27.1904 89.936 26.9431 89.936 26.6689ZM101.32 28.9173H99.7196V20.0825H101.32V28.9173ZM103.089 25.3062H101.96V23.6937H103.089L106.692 20.0825H108.966L104.426 24.5012L108.966 28.9173H106.692L103.089 25.3062ZM109.766 28.1098C109.766 28.0038 109.787 27.902 109.829 27.8045C109.869 27.7086 109.926 27.6244 109.998 27.5521C110.069 27.4814 110.153 27.4242 110.25 27.3805C110.346 27.3368 110.45 27.3149 110.561 27.3149C110.668 27.3149 110.77 27.3368 110.866 27.3805C110.962 27.4242 111.046 27.4814 111.118 27.5521C111.191 27.6244 111.248 27.7086 111.29 27.8045C111.334 27.902 111.356 28.0038 111.356 28.1098C111.356 28.2208 111.334 28.3243 111.29 28.4202C111.248 28.5178 111.191 28.6027 111.118 28.6751C111.046 28.7457 110.962 28.8021 110.866 28.8441C110.77 28.8845 110.668 28.9047 110.561 28.9047C110.45 28.9047 110.346 28.8845 110.25 28.8441C110.153 28.8021 110.069 28.7457 109.998 28.6751C109.926 28.6027 109.869 28.5178 109.829 28.4202C109.787 28.3243 109.766 28.2208 109.766 28.1098ZM112.895 26.6689V22.331C112.895 22.1829 112.913 22.0239 112.948 21.854C112.983 21.6841 113.037 21.5159 113.109 21.3493C113.183 21.1828 113.28 21.0238 113.4 20.8724C113.519 20.7193 113.662 20.5847 113.829 20.4686C113.995 20.3509 114.187 20.2575 114.404 20.1885C114.623 20.1178 114.869 20.0825 115.143 20.0825H120.922V21.6849H115.143C114.935 21.6849 114.775 21.7405 114.664 21.8515C114.553 21.9625 114.497 22.1266 114.497 22.3436V26.6689C114.497 26.8741 114.554 27.0331 114.666 27.1458C114.779 27.2585 114.938 27.3149 115.143 27.3149H120.922V28.9173H115.143C114.995 28.9173 114.836 28.8997 114.666 28.8643C114.496 28.829 114.328 28.7752 114.162 28.7028C113.995 28.6288 113.836 28.5329 113.685 28.4151C113.532 28.2974 113.397 28.1561 113.281 27.9912C113.163 27.8246 113.07 27.6312 113.001 27.4108C112.93 27.1904 112.895 26.9431 112.895 26.6689ZM124.102 28.9173H122.499V24.5012C122.499 23.8552 122.61 23.2613 122.832 22.7196C123.054 22.1779 123.362 21.7119 123.756 21.3216C124.15 20.9313 124.616 20.6268 125.154 20.4081C125.692 20.191 126.28 20.0825 126.915 20.0825H130.527C130.638 20.0825 130.743 20.1027 130.842 20.1431C130.94 20.1851 131.025 20.2432 131.099 20.3172C131.173 20.3912 131.231 20.477 131.271 20.5746C131.313 20.6739 131.334 20.779 131.334 20.89V28.9173H129.732V26.7496H124.102V28.9173ZM124.102 24.5012V25.1472H129.732V21.6849H126.915C126.867 21.6849 126.763 21.6917 126.605 21.7051C126.447 21.7203 126.264 21.7564 126.057 21.8136C125.849 21.8708 125.63 21.9592 125.401 22.0786C125.171 22.1981 124.959 22.3621 124.765 22.5707C124.574 22.781 124.415 23.0434 124.288 23.358C124.164 23.6709 124.102 24.052 124.102 24.5012ZM133.305 26.6689V22.331C133.305 22.1829 133.323 22.0239 133.358 21.854C133.392 21.6841 133.445 21.5159 133.519 21.3493C133.593 21.1828 133.69 21.0238 133.81 20.8724C133.929 20.7193 134.072 20.5847 134.239 20.4686C134.405 20.3509 134.597 20.2575 134.814 20.1885C135.031 20.1178 135.278 20.0825 135.553 20.0825H141.332V21.6849H135.553C135.343 21.6849 135.182 21.7405 135.071 21.8515C134.962 21.9625 134.907 22.1266 134.907 22.3436V26.6689C134.907 26.8741 134.964 27.0331 135.076 27.1458C135.189 27.2585 135.348 27.3149 135.553 27.3149H141.332V28.9173H135.553C135.405 28.9173 135.246 28.8997 135.076 28.8643C134.905 28.829 134.736 28.7752 134.569 28.7028C134.404 28.6288 134.245 28.5329 134.092 28.4151C133.941 28.2974 133.806 28.1561 133.689 27.9912C133.572 27.8246 133.479 27.6312 133.408 27.4108C133.339 27.1904 133.305 26.9431 133.305 26.6689ZM144.689 28.9173H143.086V20.0825H144.689V23.6937H150.313V20.0825H151.916V28.9173H150.313V25.3062H144.689V28.9173ZM153.978 26.6689V20.89C153.978 20.779 153.999 20.6739 154.041 20.5746C154.081 20.477 154.137 20.3912 154.21 20.3172C154.282 20.2432 154.367 20.1851 154.465 20.1431C154.564 20.1027 154.671 20.0825 154.785 20.0825H162V21.6849H155.58V26.6689C155.58 26.8775 155.635 27.0373 155.747 27.1483C155.858 27.2594 156.02 27.3149 156.234 27.3149H162V28.9173H156.221C155.999 28.9173 155.757 28.8786 155.494 28.8012C155.232 28.7222 154.989 28.5935 154.765 28.4151C154.541 28.2368 154.354 28.0046 154.205 27.7187C154.053 27.4327 153.978 27.0827 153.978 26.6689ZM161.281 25.3062H156.221V23.6937H161.281V25.3062Z" fill="#A5A6A5"/>
<defs>
<linearGradient id="paint0_linear_841_132" x1="1.22119" y1="0.364258" x2="1.22119" y2="23.7579" gradientUnits="userSpaceOnUse">
<stop stop-color="#F5515F"/>
<stop offset="1" stop-color="#9F041B"/>
</linearGradient>
<linearGradient id="paint1_linear_841_132" x1="27.3394" y1="2.05273" x2="27.3394" y2="12.0205" gradientUnits="userSpaceOnUse">
<stop stop-color="#F5515F"/>
<stop offset="1" stop-color="#9F041B"/>
</linearGradient>
<linearGradient id="paint2_linear_841_132" x1="24.4502" y1="25.269" x2="24.4502" y2="48.6627" gradientUnits="userSpaceOnUse">
<stop stop-color="#F5515F"/>
<stop offset="1" stop-color="#9F041B"/>
</linearGradient>
</defs>
</svg>
