<svg width="493" height="454" viewBox="0 0 493 454" fill="none" xmlns="http://www.w3.org/2000/svg">
<path fill-rule="evenodd" clip-rule="evenodd" d="M407.973 41.0737L412.503 73L417.039 41.0319L449 36.4969L417.076 31.9673L412.502 0L407.933 31.9285L376 36.4982L407.973 41.0737Z" fill="#404040"/>
<path fill-rule="evenodd" clip-rule="evenodd" d="M466.582 89.448L469.499 110L472.418 89.4216L493 86.5013L472.443 83.5845L469.498 63L466.555 83.561L446 86.5025L466.582 89.448Z" fill="#B3B3B3"/>
<path d="M69.7686 345.473H46.5549C80.7836 397.309 135.052 430.93 196.228 438.145V419.001C146.456 412.511 100.498 385.8 69.7686 345.473Z" fill="#FC3D3D"/>
<path d="M46.423 203.592H32.4903L32.8127 201.425C38.4093 163.794 54.9997 128.992 80.7903 100.782C106.436 72.7305 139.326 53.1849 175.903 44.2587L177.141 43.9562L177.881 44.9992C182.544 51.5812 190.107 55.5107 198.111 55.5107C211.803 55.5107 222.942 44.3251 222.942 30.5757C222.942 16.8263 211.803 5.64062 198.111 5.64062C186.899 5.64062 177.045 13.2453 174.148 24.134L173.857 25.2249L172.764 25.4841C88.9133 45.3626 24.9634 116.28 13.6297 201.952C12.7316 208.753 12.1594 215.685 11.928 222.59H44.8526C44.8774 217.433 45.2098 210.569 46.423 203.592Z" fill="url(#paint0_linear_0_1)"/>
<path d="M379.867 113.989H403.081C368.852 62.1525 314.583 28.5329 253.409 21.3174V40.4618C303.181 46.9506 349.138 73.6618 379.867 113.989Z" fill="url(#paint1_linear_0_1)"/>
<path d="M403.217 255.87H417.149L416.827 258.038C411.231 295.668 394.639 330.469 368.85 358.68C343.205 386.73 310.314 406.276 273.737 415.203L272.499 415.505L271.761 414.463C267.096 407.88 259.534 403.95 251.529 403.95C237.838 403.95 226.698 415.136 226.698 428.887C226.698 442.635 237.838 453.822 251.529 453.822C262.741 453.822 272.595 446.217 275.493 435.328L275.783 434.236L276.878 433.976C360.726 414.1 424.677 343.183 436.01 257.51C436.908 250.719 437.48 243.786 437.713 236.873H404.787C404.762 242.033 404.429 248.898 403.217 255.87Z" fill="url(#paint2_linear_0_1)"/>
<path d="M80.6814 224.407C80.7236 214.6 83.3336 201.95 83.465 201.321C91.5237 161.996 116.065 127.956 150.87 107.762V86.228C105.181 108.756 72.8201 151.831 64.0469 202.029C64.0322 202.134 61.8088 216.996 61.7372 224.496C61.6811 226.263 61.6426 227.992 61.6426 229.73C61.6426 252.86 66.4999 275.196 76.0831 296.143H97.2231C86.3128 275.773 80.5611 252.884 80.5611 229.73C80.5611 227.947 80.6162 226.175 80.6814 224.407Z" fill="#A5A6A5"/>
<path d="M429.646 168.23L428.588 167.992L428.263 166.954C426.529 161.414 424.578 155.964 422.464 150.755C419.468 143.379 416.026 136.117 412.226 129.155H260.99V76.0234C254.701 74.2242 248.353 72.8169 242.072 71.8301V129.155L196.23 129.156V71.8301C189.948 72.8169 183.6 74.2242 177.312 76.0234V130.901L175.913 131.274C148.282 138.634 128.984 163.816 128.984 192.513C128.984 195.431 129.199 198.434 129.622 201.438L129.925 203.592H98.9496C97.4564 209.764 96.9237 216.969 96.7639 222.59H302.506C301.224 221.26 299.942 220.041 298.634 218.913C287.189 209.033 272.604 203.592 257.565 203.592H149.282L148.955 202.112C148.257 198.943 147.903 195.714 147.903 192.513C147.903 168.054 167.719 148.154 192.076 148.154L400.667 148.153L401.174 149.242C404.396 156.167 407.241 163.42 409.631 170.798L410.038 172.058L408.997 172.872C402.901 177.639 399.405 184.799 399.405 192.513C399.405 206.245 410.531 217.417 424.205 217.417C437.88 217.417 449.005 206.245 449.005 192.513C449.005 180.967 440.863 170.755 429.646 168.23Z" fill="#737373"/>
<path d="M253.41 387.63C259.689 386.645 266.037 385.238 272.328 383.438V328.56L273.726 328.187C301.358 320.828 320.656 295.644 320.656 266.948C320.656 264.026 320.442 261.026 320.017 258.025L319.712 255.87H350.689C352.184 249.699 352.717 242.493 352.877 236.873H147.135C148.414 238.199 149.697 239.418 151.008 240.55C162.449 250.429 177.034 255.87 192.074 255.87H300.357L300.684 257.35C301.384 260.518 301.738 263.748 301.738 266.948C301.738 291.407 281.921 311.307 257.562 311.307H48.9715L48.4645 310.217C45.2392 303.282 42.395 296.029 40.0091 288.665L39.6013 287.403L40.6428 286.59C46.738 281.822 50.2342 274.663 50.2342 266.948C50.2342 253.216 39.1091 242.044 25.4345 242.044C11.7599 242.044 0.634766 253.216 0.634766 266.948C0.634766 278.494 8.77614 288.707 19.9941 291.232L21.052 291.47L21.3771 292.508C23.1055 298.038 25.0571 303.487 27.1757 308.704C30.1715 316.082 33.6135 323.344 37.4138 330.305H188.65V383.438C194.94 385.238 201.288 386.645 207.567 387.63V330.305H253.41V387.63Z" fill="#737373"/>
<path d="M368.959 235.052C368.917 244.859 366.307 257.512 366.176 258.137C358.119 297.462 333.576 331.502 298.771 351.697V373.23C344.459 350.704 376.82 307.629 385.594 257.431C385.611 257.325 387.832 242.463 387.905 234.963C387.96 233.195 387.999 231.466 387.999 229.728C387.999 206.598 383.141 184.261 373.558 163.316H352.419C363.329 183.685 369.08 206.575 369.08 229.728C369.08 231.512 369.025 233.283 368.959 235.052Z" fill="#A5A6A5"/>
<defs>
<linearGradient id="paint0_linear_0_1" x1="11.928" y1="5.64062" x2="11.928" y2="222.843" gradientUnits="userSpaceOnUse">
<stop stop-color="#F5515F"/>
<stop offset="1" stop-color="#9F041B"/>
</linearGradient>
<linearGradient id="paint1_linear_0_1" x1="253.409" y1="21.3174" x2="253.409" y2="113.864" gradientUnits="userSpaceOnUse">
<stop stop-color="#F5515F"/>
<stop offset="1" stop-color="#9F041B"/>
</linearGradient>
<linearGradient id="paint2_linear_0_1" x1="226.698" y1="236.873" x2="226.698" y2="454.074" gradientUnits="userSpaceOnUse">
<stop stop-color="#F5515F"/>
<stop offset="1" stop-color="#9F041B"/>
</linearGradient>
</defs>
</svg>
