<svg width="431" height="236" viewBox="0 0 431 236" fill="none" xmlns="http://www.w3.org/2000/svg">
<path fill-rule="evenodd" clip-rule="evenodd" d="M37.8895 204.132L39.9991 219L42.1114 204.113L57 202.001L42.1295 199.891L39.9985 185L37.8701 199.873L23 202.001L37.8895 204.132Z" fill="#B3B3B3"/>
<path d="M136.184 96.12C136.184 82.424 127.352 75.512 111.608 72.312L98.04 69.624C89.464 67.832 81.912 64.76 81.912 56.056C81.912 48.12 88.44 41.08 100.344 41.08C111.864 41.08 119.8 48.76 120.568 59.768H134.904C133.752 41.464 119.288 29.816 100.216 29.816C81.144 29.816 67.576 41.464 67.576 56.952C67.576 72.568 79.352 79.096 92.28 81.656L105.592 84.216C116.216 86.52 121.208 90.36 121.208 98.04C121.208 107.512 112.504 113.016 100.856 113.016C86.776 113.016 79.352 105.464 78.712 93.816H64.376C65.528 112.12 78.968 124.28 101.112 124.28C123.384 124.28 136.184 112.12 136.184 96.12Z" fill="white"/>
<path d="M188.232 85.456C185.544 86.736 182.856 87.248 179.784 87.248C172.872 87.248 168.392 83.92 168.392 74.576V41.168H188.872V30.16H168.392V10.064H155.464V30.16H140.488V41.168H155.464V77.52C155.464 92.496 164.168 99.28 176.712 99.28C180.808 99.28 184.264 98.64 188.232 96.848V85.456Z" fill="white"/>
<path d="M241.048 123H251.8V79.48C251.8 63.352 242.072 53.88 225.304 53.88C209.432 53.88 198.552 63.992 197.912 79.224H209.688C210.072 69.752 215.832 64.12 225.304 64.12C234.264 64.12 239.512 69.624 239.512 79.352V84.344C234.008 83.704 230.808 83.576 226.84 83.576C206.616 83.576 195.992 90.488 195.992 103.8C195.992 116.216 205.208 124.28 219.288 124.28C229.272 124.28 236.824 120.056 241.048 112.504V123ZM208.28 103.416C208.28 95.48 214.68 91.64 227.608 91.64C230.936 91.64 234.52 91.768 239.512 92.408V97.912C239.512 108.28 232.728 115.064 221.848 115.064C213.528 115.064 208.28 110.456 208.28 103.416Z" fill="white"/>
<path d="M294.712 99.408C311.736 99.408 323.768 88.4 326.072 70.48H312.632C311.096 81.488 304.44 87.888 294.84 87.888C283.704 87.888 276.408 78.544 276.408 64.08C276.408 49.744 283.704 40.272 294.84 40.272C304.312 40.272 311.096 46.8 312.504 57.68H326.072C323.64 40.016 311.48 28.88 294.712 28.88C276.408 28.88 263.096 43.6 263.096 64.08C263.096 84.816 276.152 99.408 294.712 99.408Z" fill="white"/>
<path d="M350.888 123V90.872L381.48 123H398.12L363.816 88.056L395.176 55.16H379.944L350.888 85.496V31.096H337.96V123H350.888Z" fill="white"/>
<path d="M108.92 235.92C129.656 235.92 147.32 221.712 151.032 200.72H146.424C143.352 218.768 127.992 231.952 108.92 231.952C86.136 231.952 69.24 213.136 69.24 187.92C69.24 162.96 86.136 144.144 108.92 144.144C127.736 144.144 143.096 157.2 146.424 175.248H151.032C147.192 154.128 129.656 140.176 108.92 140.176C83.576 140.176 64.632 160.912 64.632 187.92C64.632 215.056 83.576 235.92 108.92 235.92ZM209.105 234H213.329V189.584C213.329 174.608 204.753 165.776 190.161 165.776C175.313 165.776 165.457 175.504 165.457 190.224H169.553C169.553 177.424 177.617 169.36 190.289 169.36C202.065 169.36 208.977 177.168 208.977 190.352V196.88C201.041 196.24 197.969 196.112 193.745 196.112C173.137 196.112 162.769 202.768 162.769 215.952C162.769 227.728 171.601 235.28 185.425 235.28C196.433 235.28 205.521 229.264 209.105 219.792V234ZM167.121 215.824C167.121 204.816 175.697 199.568 193.873 199.568C197.841 199.568 202.321 199.696 208.977 200.208V206.736C208.977 221.84 199.761 231.696 185.425 231.696C174.417 231.696 167.121 225.296 167.121 215.824ZM257.423 235.408C272.015 235.408 282.639 225.68 285.327 209.552H281.231C278.671 223.632 269.839 231.824 257.423 231.824C243.087 231.824 233.103 218.896 233.103 200.464C233.103 182.16 243.087 169.36 257.423 169.36C269.711 169.36 278.543 177.552 281.103 191.504H285.327C282.383 175.376 272.015 165.776 257.423 165.776C240.527 165.776 228.751 179.984 228.751 200.464C228.751 221.072 240.527 235.408 257.423 235.408ZM305.726 193.68C305.726 180.24 315.582 169.36 327.742 169.36C340.286 169.36 347.198 177.552 347.198 192.016V234H351.55V190.48C351.55 174.736 342.718 165.776 328.51 165.776C318.398 165.776 309.694 172.176 305.726 181.264V142.096H301.374V234H305.726V193.68ZM396.956 235.408C411.932 235.408 423.068 226.064 425.628 211.472H421.404C419.1 224.144 410.012 231.824 396.956 231.824C381.596 231.824 371.74 219.92 371.1 201.488H425.244C425.884 180.112 414.236 165.776 396.316 165.776C379.42 165.776 366.876 180.368 366.876 199.824C366.876 221.2 378.908 235.408 396.956 235.408ZM396.316 169.36C410.78 169.36 419.868 179.984 420.764 197.904H371.1C371.868 181.008 382.236 169.36 396.316 169.36Z" fill="white"/>
<path fill-rule="evenodd" clip-rule="evenodd" d="M28.4697 126.826L32.5033 160.892L36.5422 126.781L65 121.942L36.5751 117.109L32.5019 83L28.4335 117.068L0 121.944L28.4697 126.826Z" fill="#BA1C30"/>
<path fill-rule="evenodd" clip-rule="evenodd" d="M85.2525 178.946L87.2718 196L89.2937 178.924L103.545 176.501L89.3105 174.081L87.2707 157L85.2333 174.061L71 176.502L85.2525 178.946Z" fill="#404040"/>
</svg>
